<svg width="166" height="46" viewBox="0 0 166 46" fill="none" xmlns="http://www.w3.org/2000/svg">
<path d="M54.1673 31.6548V28.8039H51.3164V11.6985H54.1673V8.84766H74.1236V14.5494H57.0182V25.953H68.4218V23.1021H62.72V17.4003H74.1236V28.8039H71.2727V31.6548H54.1673Z" fill="white"/>
<path d="M25.6562 31.6548V25.953H34.2089V14.5494H25.6562V8.84766H48.4634V14.5494H39.9107V25.953H48.4634V31.6548H25.6562Z" fill="white"/>
<path d="M0 31.6548V8.84766H19.9562V11.6985H22.8071V28.8039H19.9562V31.6548H0ZM17.1054 25.953V23.1021H5.70179V25.953H17.1054ZM17.1054 17.4003V14.5494H5.70179V17.4003H17.1054Z" fill="white"/>
<path d="M142.703 31.655C142.43 31.5942 142.293 31.2749 142.293 30.6971C142.293 29.6936 142.582 28.614 143.16 27.4585C143.342 27.2456 143.494 27.0327 143.616 26.8199C143.768 26.607 143.844 26.3637 143.844 26.09C143.844 25.9076 143.935 25.6339 144.118 25.269C144.3 24.8737 144.498 24.4631 144.711 24.0374C144.954 23.5813 145.167 23.1859 145.349 22.8514C145.532 22.5169 145.623 22.3193 145.623 22.2584C145.684 22.1064 145.744 21.9391 145.805 21.7567C145.896 21.5438 145.942 21.4374 145.942 21.4374C146.246 20.9812 146.611 20.4187 147.037 19.7497C147.493 19.0806 148.025 18.3052 148.633 17.4233H148.588C149.013 16.7239 149.394 16.1309 149.728 15.6444C150.093 15.1274 150.428 14.7169 150.732 14.4128C151.705 13.4397 152.815 12.9531 154.061 12.9531C154.822 12.9531 155.202 13.2876 155.202 13.9566C155.202 14.5344 154.852 15.1274 154.153 15.7356C153.879 15.9789 153.59 16.2222 153.286 16.4654C153.012 16.6783 152.754 16.9064 152.511 17.1496C152.267 17.4233 151.933 17.8339 151.507 18.3812C151.081 18.8982 150.58 19.552 150.002 20.3426C149.941 20.4339 149.774 20.6619 149.5 21.0269C149.257 21.3614 148.998 21.7415 148.725 22.1672C148.481 22.5625 148.299 22.9122 148.177 23.2163C148.086 23.49 148.147 23.6117 148.36 23.5813C148.785 22.9731 149.835 22.076 151.507 20.89C152.206 20.4035 152.784 19.9169 153.24 19.4304C153.697 18.9438 154.153 18.5485 154.609 18.2444C154.761 18.1836 154.928 18.0923 155.111 17.9707C155.293 17.8491 155.491 17.6818 155.704 17.4689H155.749C156.57 17.0432 157.452 16.5719 158.395 16.0549C159.338 15.5075 160.326 14.8993 161.36 14.2303C161.451 14.1695 161.573 14.1695 161.725 14.2303C163.093 13.7438 164.036 13.5005 164.553 13.5005C165.07 13.5005 165.328 13.7286 165.328 14.1847C165.328 14.2759 165.283 14.504 165.191 14.8689C165.131 15.2338 164.994 15.5836 164.781 15.9181C164.598 16.2526 164.325 16.4198 163.96 16.4198H161.953C160.949 16.8151 159.87 17.2409 158.714 17.697C157.589 18.1227 156.418 18.7765 155.202 19.6584H155.156C150.686 22.6082 147.341 25.7251 145.121 29.0094C145.091 29.1614 145.03 29.3439 144.939 29.5567C144.847 29.7696 144.741 30.0281 144.619 30.3322C144.163 31.1228 143.525 31.5638 142.703 31.655Z" fill="#FF0000"/>
<path d="M123.367 32.2009C123.002 32.2009 122.698 32.0944 122.455 31.8816C122.211 31.6687 122.09 31.3342 122.09 30.878C122.09 30.7564 122.105 30.6348 122.135 30.5131C122.135 30.3915 122.151 30.2699 122.181 30.1482C122.424 29.1447 122.835 27.9587 123.413 26.5903C123.99 25.2219 124.751 23.7622 125.693 22.2113C126.666 20.6605 127.868 19.14 129.297 17.6499C130.361 16.5552 131.502 15.7797 132.718 15.3236C133.934 14.837 135.227 14.5938 136.595 14.5938H136.641C137.675 14.5938 138.359 14.8674 138.693 15.4148C139.028 15.9318 139.195 16.4639 139.195 17.0113C139.195 17.6499 139.104 18.1517 138.922 18.5166L138.876 18.5622C138.754 18.6838 138.602 18.7446 138.42 18.7446C138.268 18.7446 138.116 18.6838 137.964 18.5622C137.842 18.4406 137.781 18.2733 137.781 18.0604C137.781 17.7563 137.72 17.4979 137.599 17.285C137.507 17.0721 137.386 16.8897 137.234 16.7376C137.203 16.6768 137.127 16.6464 137.006 16.6464C136.884 16.616 136.747 16.6008 136.595 16.6008H136.55C136.458 16.6008 136.367 16.5856 136.276 16.5552C136.185 16.4943 136.093 16.4639 136.002 16.4639C134.847 16.4639 133.417 17.2698 131.714 18.8815C129.981 20.5844 128.689 22.0593 127.837 23.3061C126.986 24.5529 126.393 25.6324 126.058 26.5447C125.754 27.4266 125.526 28.2172 125.374 28.9166C125.344 29.1599 125.42 29.2815 125.602 29.2815C125.937 29.2815 126.347 29.1295 126.834 28.8254C127.351 28.5213 127.883 28.1564 128.43 27.7307C128.978 27.3049 129.51 26.8792 130.027 26.4535C130.544 25.9973 130.954 25.6324 131.258 25.3587C131.41 25.2067 131.547 25.1002 131.669 25.0394C131.821 24.9786 131.943 24.9026 132.034 24.8113C132.186 24.6897 132.292 24.5681 132.353 24.4464C132.444 24.3248 132.551 24.2184 132.672 24.1271C133.767 23.1844 134.649 22.4394 135.318 21.892C135.987 21.3143 136.504 20.8581 136.869 20.5236C137.264 20.1891 137.599 19.9002 137.872 19.6569C138.268 19.2616 138.709 19.0639 139.195 19.0639C139.895 19.0639 140.336 19.4441 140.518 20.2043C140.64 20.63 140.533 20.9341 140.199 21.1166C139.864 21.2686 139.621 21.4511 139.469 21.664C139.226 21.9681 138.967 22.4242 138.693 23.0324C138.42 23.6102 138.055 24.3096 137.599 25.1307C137.325 25.6476 137.082 26.2254 136.869 26.864C136.686 27.4722 136.626 27.9283 136.686 28.2324L137.462 27.7307C137.857 27.5482 138.283 27.3962 138.739 27.2745C139.195 27.1225 139.575 26.94 139.879 26.7272C140.092 26.6055 140.275 26.5447 140.427 26.5447C140.67 26.5447 140.792 26.6511 140.792 26.864C140.792 27.1073 140.609 27.3505 140.244 27.5938C139.362 28.2324 138.663 28.6886 138.146 28.9623C137.629 29.2055 137.082 29.6161 136.504 30.1938C136.382 30.3155 136.124 30.6044 135.729 31.0605C135.364 31.4862 135.105 31.7447 134.953 31.836C134.831 31.8968 134.695 31.9272 134.543 31.9272C134.421 31.9576 134.299 31.9728 134.178 31.9728C133.752 31.9728 133.493 31.9272 133.402 31.836C133.341 31.7751 133.25 31.7143 133.129 31.6535C133.037 31.6231 132.961 31.5319 132.9 31.3798C132.84 31.1365 132.809 30.9237 132.809 30.7412C132.809 30.1938 132.946 29.5552 133.22 28.8254C133.524 28.0652 133.919 27.2289 134.406 26.3166C134.801 25.5564 135.09 24.9634 135.272 24.5377C135.455 24.1119 135.592 23.7622 135.683 23.4885C135.774 23.1844 135.881 22.8956 136.002 22.6219C135.576 23.0172 135.136 23.4277 134.679 23.8535C134.223 24.2792 133.691 24.7505 133.083 25.2675C132.992 25.3283 132.87 25.4195 132.718 25.5412C132.566 25.6324 132.459 25.6932 132.399 25.7236L131.167 26.864C130.316 27.533 129.555 28.1564 128.886 28.7342C128.217 29.312 127.533 29.8593 126.834 30.3763C126.134 30.8933 125.298 31.4254 124.325 31.9728C123.96 32.1248 123.641 32.2009 123.367 32.2009Z" fill="#FF0000"/>
<path d="M109.659 32.8401C109.568 32.8401 109.37 32.7793 109.066 32.6576C108.762 32.5664 108.442 32.4752 108.108 32.3839C107.773 32.2927 107.53 32.2471 107.378 32.2471H107.333C106.755 32.2471 106.314 32.019 106.01 31.5629C105.736 31.0763 105.554 30.6354 105.462 30.2401C105.432 30.088 105.402 29.936 105.371 29.7839C105.371 29.6015 105.371 29.419 105.371 29.2366C105.371 28.233 105.614 27.0927 106.101 25.8155C106.587 24.5383 107.241 23.2155 108.062 21.847C108.914 20.4786 109.872 19.2014 110.936 18.0154C112.031 16.7687 113.141 15.7955 114.266 15.0961C115.391 14.3967 116.41 14.0014 117.322 13.9102C117.809 13.9102 118.31 14.047 118.827 14.3207C119.344 14.5944 119.709 14.7312 119.922 14.7312H119.968C120.606 14.7312 121.032 14.9897 121.245 15.5067C121.458 16.0236 121.564 16.5406 121.564 17.0575C121.564 17.3616 121.503 17.6809 121.382 18.0154C121.26 18.3499 121.154 18.6236 121.062 18.8365C121.002 19.0494 121.002 19.1254 121.062 19.0646L121.108 19.019C120.774 19.6271 120.393 20.2505 119.968 20.8891C119.572 21.4973 118.919 22.3032 118.006 23.3067C117.641 23.702 117.14 24.0973 116.501 24.4927C115.893 24.8576 115.3 25.1921 114.722 25.4962C114.144 25.8003 113.734 26.0131 113.49 26.1348C113.247 26.2564 112.928 26.3172 112.533 26.3172C112.137 26.3172 111.696 26.2716 111.21 26.1804C110.754 26.0892 110.358 26.0436 110.024 26.0436C109.841 26.0436 109.674 26.0588 109.522 26.0892C109.37 26.1196 109.264 26.2108 109.203 26.3629C108.716 27.1535 108.473 27.9442 108.473 28.7348C108.473 29.2214 108.579 29.6319 108.792 29.9664C109.035 30.2705 109.431 30.4225 109.978 30.4225C110.161 30.4225 110.358 30.4073 110.571 30.3769C110.784 30.3465 110.997 30.2857 111.21 30.1945C111.727 30.1032 112.092 30.0576 112.304 30.0576C112.517 30.0576 112.745 30.0272 112.989 29.9664C113.262 29.9056 113.703 29.7535 114.311 29.5102C114.981 29.2366 115.482 29.0389 115.817 28.9173C116.182 28.7956 116.455 28.6892 116.638 28.598C116.851 28.5067 117.064 28.4003 117.276 28.2787C117.489 28.157 117.824 27.9746 118.28 27.7313C118.614 27.5488 118.797 27.4576 118.827 27.4576C118.888 27.4576 118.979 27.4272 119.101 27.3664C119.223 27.2751 119.542 27.0623 120.059 26.7278C120.606 26.3629 121.032 26.1804 121.336 26.1804C121.549 26.1804 121.655 26.2564 121.655 26.4085C121.655 26.5301 121.549 26.7126 121.336 26.9558C121.154 27.1991 120.819 27.488 120.333 27.8225C119.816 28.1874 119.223 28.6132 118.554 29.0997C117.915 29.5863 117.322 29.9664 116.775 30.2401C116.592 30.2705 116.425 30.3465 116.273 30.4681C116.151 30.5594 115.969 30.6354 115.726 30.6962L113.171 31.791L113.217 31.7453C113.308 31.6541 113.202 31.6541 112.897 31.7453C112.624 31.8366 112.259 31.9734 111.803 32.1559C111.377 32.3383 110.951 32.4904 110.526 32.612C110.13 32.7641 109.841 32.8401 109.659 32.8401ZM111.438 24.9944C111.559 24.9944 111.681 24.9944 111.803 24.9944C111.924 24.964 112.046 24.9336 112.168 24.9032C112.38 24.7207 112.578 24.5839 112.761 24.4927C112.943 24.4014 113.186 24.2494 113.49 24.0365C113.795 23.8237 114.22 23.4435 114.768 22.8962C115.224 22.44 115.619 22.1207 115.954 21.9383C116.288 21.7254 116.562 21.4973 116.775 21.2541C117.413 20.3722 117.748 19.7032 117.778 19.247C117.839 18.7909 117.869 18.3652 117.869 17.9698C117.504 17.4833 117.17 17.24 116.866 17.24C116.683 17.24 116.41 17.316 116.045 17.4681C115.528 17.6809 115.102 17.8786 114.768 18.0611C114.464 18.2435 114.007 18.6388 113.399 19.247C112.7 19.9769 112.061 20.6915 111.483 21.3909C110.906 22.0599 110.449 22.7441 110.115 23.4435C110.085 23.5652 110.039 23.6868 109.978 23.8085C109.948 23.8997 109.933 23.9757 109.933 24.0365C109.933 24.371 110.085 24.6143 110.389 24.7664C110.693 24.9184 111.042 24.9944 111.438 24.9944Z" fill="#FF0000"/>
<path d="M84.5428 44.6546C84.3908 44.6546 84.1779 44.609 83.9042 44.5178C83.6001 44.457 83.4177 44.3353 83.3569 44.1529V44.2441C83.3569 44.2441 83.3416 44.1073 83.3112 43.8336C83.2808 43.5903 83.2656 43.3774 83.2656 43.195C83.2656 42.8301 83.3264 42.4043 83.4481 41.9178C83.5697 41.4312 83.7978 40.8991 84.1323 40.3213C84.5276 38.2838 84.9534 36.7177 85.4095 35.623C85.896 34.5587 86.337 33.6616 86.7323 32.9318C87.2493 32.0499 87.7814 31.1832 88.3288 30.3317C88.9066 29.4499 89.4844 28.5984 90.0622 27.7773C90.4879 27.1996 90.8984 26.5914 91.2937 25.9528C91.7195 25.2838 91.9932 24.8428 92.1148 24.63C92.3277 24.2955 92.5861 23.9153 92.8902 23.4896C93.1943 23.0335 93.4832 22.6229 93.7569 22.258C94.061 21.8627 94.2739 21.6194 94.3955 21.5282C94.3955 21.5282 94.4259 21.4826 94.4867 21.3913C94.5476 21.3001 94.578 21.2393 94.578 21.2089C94.578 20.8744 94.5476 20.5855 94.4867 20.3422C94.4563 20.0685 94.4411 19.8709 94.4411 19.7492C94.3195 18.5024 94.1826 17.4989 94.0306 16.7387C93.8786 15.9784 93.7113 15.3246 93.5288 14.7773C93.3464 14.2299 93.1791 13.6521 93.0271 13.0439C92.875 12.4357 92.7382 11.6603 92.6166 10.7176C92.6166 10.3527 92.5405 9.92695 92.3885 9.4404C92.2364 8.95385 92.0692 8.51291 91.8867 8.11759C91.7347 7.72226 91.613 7.49419 91.5218 7.43337L91.4762 7.34214C91.4762 7.28132 91.3698 7.12928 91.1569 6.886C90.9744 6.61231 90.7008 6.55149 90.3358 6.70354C90.2446 6.73395 90.123 6.74916 89.9709 6.74916C89.6364 6.74916 89.4692 6.59711 89.4692 6.29301C89.4692 6.04974 89.5452 5.77605 89.6972 5.47196C89.8797 5.13745 90.0165 4.90938 90.1078 4.78774C90.2598 4.54447 90.4727 4.30119 90.7464 4.05791C91.0505 3.78423 91.3089 3.54095 91.5218 3.32808C91.7651 3.08481 91.978 2.93276 92.1604 2.87194C92.3429 2.78071 92.5101 2.7351 92.6622 2.7351C92.8142 2.7351 92.9663 2.7503 93.1183 2.78071C93.3008 2.81112 93.4528 2.82633 93.5745 2.82633H93.6201C94.1674 2.82633 94.5324 3.08481 94.7148 3.60177C94.9277 4.11873 95.1101 4.87897 95.2622 5.88249C95.3838 6.5819 95.5207 7.26612 95.6727 7.93513C95.8552 8.57373 95.9464 9.37958 95.9464 10.3527C95.9464 10.8088 96.0224 11.4018 96.1745 12.1316C96.3265 12.8311 96.4482 13.6673 96.5394 14.6404C96.5394 14.8533 96.585 15.2942 96.6762 15.9632C96.7675 16.6323 96.8739 17.134 96.9955 17.4685V18.7001C97.2388 18.6089 97.4213 18.5633 97.5429 18.5633C98.1815 17.8638 98.8049 17.21 99.4131 16.6018C100.052 15.9632 100.356 15.6287 100.325 15.5983L100.371 15.5071C100.888 14.9293 101.603 14.1995 102.515 13.3176C103.427 12.4053 104.431 11.493 105.525 10.5808C106.651 9.63806 107.745 8.84741 108.81 8.20882H108.855C108.886 8.20882 109.068 8.05677 109.403 7.75267C109.737 7.41817 110.072 7.08366 110.406 6.74916C110.771 6.38424 110.984 6.18658 111.045 6.15617L111.136 6.11056C111.197 6.11056 111.349 5.98892 111.592 5.74564C111.835 5.47196 112.109 5.18307 112.413 4.87897C112.748 4.54447 113.006 4.31639 113.189 4.19476V4.14914C113.584 3.90587 113.842 3.76902 113.964 3.73861C114.086 3.67779 114.238 3.57136 114.42 3.41931C114.633 3.26727 114.998 2.93276 115.515 2.4158L115.561 2.37019C115.621 2.40059 115.728 2.33978 115.88 2.18773C116.062 2.00527 116.138 1.89884 116.108 1.86843L116.154 1.7772C116.306 1.68597 116.412 1.65556 116.473 1.68597C116.564 1.68597 116.625 1.67077 116.655 1.64036C116.99 1.21462 117.339 0.925732 117.704 0.773685C118.1 0.591228 118.48 0.5 118.845 0.5C119.24 0.5 119.605 0.576024 119.94 0.728071C120.274 0.880119 120.548 1.03217 120.761 1.18421C120.821 1.21462 120.852 1.32106 120.852 1.50351C120.882 1.65556 120.745 1.89884 120.441 2.23334C120.168 2.53744 119.605 2.97837 118.754 3.55616C118.419 3.76902 118.115 4.0123 117.841 4.28598C117.598 4.52926 117.218 4.83336 116.701 5.19827C116.214 5.56318 115.439 6.06494 114.375 6.70354H114.329C114.086 6.82518 113.797 7.11407 113.462 7.57021C113.158 8.02636 112.839 8.37607 112.504 8.61934C112.17 8.8018 111.729 9.06028 111.182 9.39478C110.665 9.69888 110.239 9.95736 109.904 10.1702L107.578 11.858C106.666 12.527 105.723 13.3024 104.75 14.1843C103.777 15.0358 102.849 15.9024 101.967 16.7843C101.086 17.6662 100.295 18.472 99.5955 19.2019C98.9265 19.9013 98.4248 20.4182 98.0903 20.7527C97.9686 20.8744 97.847 20.9808 97.7254 21.072C97.6341 21.1329 97.4973 21.2393 97.3148 21.3913C97.3148 21.513 97.33 21.6346 97.3604 21.7563C97.3909 21.8779 97.4061 21.9387 97.4061 21.9387V21.8931C97.5885 22.1972 97.7102 22.4405 97.771 22.6229C97.8318 22.8054 97.8622 22.9726 97.8622 23.1247C97.8622 23.3376 97.8166 23.6264 97.7254 23.9914V23.9457C97.6949 24.1282 97.5581 24.2194 97.3148 24.2194C97.102 24.2194 96.8283 24.1434 96.4938 23.9914C96.1593 23.8089 95.8856 23.6721 95.6727 23.5808L95.6271 23.5352H95.5815C95.2166 24.0218 94.8365 24.5387 94.4411 25.0861C94.0458 25.6031 93.6809 26.0288 93.3464 26.3633L93.3008 26.4089C93.3008 26.3785 93.1487 26.5762 92.8446 27.0019C92.5405 27.4276 92.1908 27.9446 91.7955 28.5528C91.4002 29.1306 91.0353 29.6779 90.7008 30.1949H90.6551C90.5335 30.3469 90.2142 30.7575 89.6972 31.4265C89.1803 32.0955 88.4809 33.3271 87.599 35.1212C86.93 36.5201 86.5499 37.6604 86.4586 38.5423C86.3674 39.4242 86.2914 39.9412 86.2306 40.0932C86.3218 40.002 86.5499 39.8195 86.9148 39.5458C87.3101 39.3025 87.751 39.0289 88.2376 38.7248C88.7241 38.4207 89.1803 38.1774 89.606 37.9949C90.0317 37.8125 90.3358 37.7517 90.5183 37.8125C90.792 37.9341 90.9288 38.1014 90.9288 38.3142C90.9288 38.5271 90.7616 38.7248 90.4271 38.9072C90.123 39.1201 89.8797 39.2569 89.6972 39.3178C89.6972 39.3178 89.5452 39.4242 89.2411 39.6371C88.937 39.8803 88.6329 40.1084 88.3288 40.3213C88.0551 40.5645 87.9183 40.6862 87.9183 40.6862C87.9183 40.6862 87.8423 40.823 87.6902 41.0967C87.5382 41.3704 87.3557 41.5681 87.1428 41.6897C87.0212 41.8113 86.8235 42.0546 86.5499 42.4195C86.3066 42.8149 86.0177 43.2254 85.6832 43.6511C85.3487 44.0768 84.9838 44.4114 84.5884 44.6546H84.5428Z" fill="#FF0000"/>
<path d="M165.328 14.1826C165.328 13.7839 165.13 13.5597 164.734 13.5098L164.553 13.499C164.036 13.499 163.093 13.7421 161.725 14.2285L161.616 14.1943C161.514 14.1715 161.428 14.1829 161.359 14.2285L160.593 14.7188C159.834 15.1978 159.102 15.6431 158.395 16.0537L157.026 16.7949L155.749 17.4668H155.703C155.49 17.6796 155.293 17.8471 155.11 17.9688L154.848 18.1289C154.764 18.1745 154.684 18.2128 154.608 18.2432C154.152 18.5472 153.696 18.9423 153.24 19.4287L153.063 19.6113C152.638 20.0371 152.119 20.4629 151.507 20.8887C149.834 22.0746 148.785 22.9719 148.359 23.5801C148.147 23.6105 148.086 23.4884 148.177 23.2148C148.298 22.9108 148.481 22.5613 148.725 22.166C148.998 21.7403 149.257 21.3599 149.5 21.0254C149.774 20.6606 149.94 20.4321 150.001 20.3408C150.579 19.5502 151.081 18.8968 151.507 18.3799C151.932 17.8328 152.267 17.4221 152.51 17.1484C152.753 16.9053 153.012 16.6767 153.285 16.4639C153.589 16.2206 153.879 15.9776 154.152 15.7344C154.808 15.1642 155.156 14.6069 155.197 14.0635L155.201 13.9551C155.201 13.2861 154.821 12.9512 154.061 12.9512C152.814 12.9513 151.704 13.4382 150.731 14.4111L150.497 14.6592C150.258 14.9271 150.001 15.255 149.728 15.6426C149.393 16.1291 149.013 16.7225 148.587 17.4219H148.633C148.025 18.3037 147.492 19.0791 147.036 19.748C146.61 20.417 146.245 20.9794 145.941 21.4355C145.941 21.4355 145.896 21.5421 145.805 21.7549C145.744 21.9373 145.683 22.1048 145.622 22.2568L145.605 22.3281C145.571 22.425 145.485 22.5988 145.349 22.8496C145.166 23.1841 144.953 23.58 144.71 24.0361C144.497 24.4617 144.3 24.8724 144.117 25.2676C143.935 25.6321 143.844 25.9055 143.844 26.0879L143.829 26.2881C143.801 26.4819 143.729 26.6588 143.615 26.8184C143.494 27.0312 143.342 27.2442 143.159 27.457C142.581 28.6125 142.293 29.6919 142.293 30.6953L142.299 30.9004C142.325 31.2847 142.427 31.524 142.606 31.6182L142.703 31.6533C143.473 31.5678 144.082 31.1749 144.531 30.4746L144.619 30.3301L144.938 29.5547C145.007 29.3951 145.058 29.2524 145.092 29.127L145.12 29.0078C147.34 25.7237 150.685 22.6068 155.155 19.6572H155.201L155.655 19.3369C156.559 18.7181 157.437 18.2273 158.29 17.8652L158.714 17.6953C159.869 17.2392 160.949 16.8133 161.952 16.418H163.959C164.324 16.418 164.598 16.2505 164.78 15.916C164.993 15.5816 165.13 15.232 165.19 14.8672C165.259 14.5936 165.302 14.3971 165.319 14.2773L165.328 14.1826ZM155.696 14.1025C155.641 14.8353 155.177 15.504 154.479 16.1104C154.2 16.3585 153.907 16.6074 153.598 16.8545L153.593 16.8584C153.34 17.055 153.101 17.2654 152.876 17.4893C152.644 17.7506 152.32 18.1479 151.901 18.6865L151.893 18.6973C151.475 19.2042 150.98 19.8498 150.405 20.6357L150.404 20.6348C150.328 20.7473 150.157 20.9798 149.903 21.3184C149.835 21.4121 149.768 21.5118 149.697 21.6133C150.137 21.2642 150.645 20.8863 151.218 20.4805L151.221 20.4775C151.899 20.0058 152.448 19.542 152.875 19.0869C153.352 18.5783 153.837 18.1565 154.331 17.8271L154.374 17.7979L154.423 17.7783C154.534 17.7338 154.67 17.6611 154.833 17.5527C154.98 17.4547 155.152 17.3107 155.35 17.1133L155.496 16.9668H155.626C156.409 16.5594 157.249 16.1107 158.144 15.6201C159.078 15.0773 160.06 14.4737 161.088 13.8086C161.296 13.6728 161.518 13.6644 161.71 13.7041C162.337 13.4844 162.879 13.3145 163.333 13.1973C163.816 13.0727 164.23 12.999 164.553 12.999C164.874 12.9991 165.208 13.0684 165.465 13.2949C165.733 13.532 165.828 13.8603 165.828 14.1826L165.814 14.3477C165.806 14.4054 165.795 14.4646 165.784 14.5205C165.761 14.6367 165.726 14.7801 165.685 14.9492L165.652 15.1113C165.571 15.4771 165.425 15.825 165.219 16.1553C165.093 16.385 164.924 16.5825 164.699 16.7197C164.474 16.8577 164.22 16.918 163.959 16.918H162.049C161.07 17.3035 160.02 17.7172 158.897 18.1602L158.891 18.1631C157.816 18.5698 156.684 19.1996 155.495 20.0615L155.363 20.1572H155.308C150.97 23.0362 147.736 26.0577 145.584 29.2158C145.541 29.3834 145.478 29.5634 145.397 29.752C145.308 29.9599 145.204 30.2149 145.083 30.5166L145.069 30.5498L145.052 30.5801C144.526 31.4918 143.755 32.0396 142.758 32.1504L142.676 32.1592L142.595 32.1416C142.263 32.0679 142.05 31.8333 141.936 31.5654C141.828 31.3156 141.793 31.0129 141.793 30.6953C141.793 29.5952 142.109 28.439 142.712 27.2334L142.739 27.1777L142.779 27.1318C142.944 26.9396 143.078 26.7522 143.182 26.5703L143.193 26.5479L143.208 26.5273C143.297 26.4034 143.344 26.2625 143.344 26.0879C143.344 25.78 143.484 25.4171 143.667 25.0508C143.851 24.6527 144.049 24.2397 144.263 23.8125L144.269 23.8008C144.512 23.3437 144.727 22.9466 144.91 22.6104C144.999 22.447 145.061 22.3251 145.1 22.2412C145.11 22.2194 145.117 22.2017 145.122 22.1885V22.1602L145.158 22.0713C145.215 21.9297 145.272 21.7714 145.33 21.5967L145.337 21.5771L145.346 21.5576C145.348 21.5516 145.361 21.5231 145.362 21.5195C145.374 21.4915 145.365 21.5103 145.377 21.4834C145.378 21.4807 145.384 21.4683 145.385 21.4658C145.4 21.4295 145.376 21.4858 145.392 21.4492C145.41 21.407 145.387 21.4597 145.405 21.418C145.412 21.4029 145.402 21.4265 145.408 21.4111C145.411 21.404 145.408 21.4104 145.411 21.4033L145.423 21.376L145.425 21.373V21.3711L145.426 21.3701L145.429 21.3633C145.431 21.3589 145.43 21.362 145.432 21.3574C145.433 21.3548 145.43 21.3582 145.432 21.3555H145.433V21.3545L145.434 21.3525V21.3516L145.435 21.3506V21.3486H145.436L145.438 21.3398C145.445 21.324 145.442 21.3334 145.448 21.3184C145.45 21.3139 145.455 21.3031 145.456 21.2998C145.458 21.2963 145.462 21.2857 145.463 21.2832L145.469 21.2695C145.471 21.2641 145.469 21.2694 145.472 21.2637C145.476 21.2535 145.469 21.2694 145.474 21.2588C145.475 21.2558 145.477 21.2521 145.478 21.25C145.481 21.2412 145.476 21.2515 145.479 21.2441C145.481 21.2413 145.481 21.242 145.481 21.2402L145.482 21.2393L145.5 21.1963L145.525 21.1582C145.827 20.706 146.19 20.1467 146.614 19.4795L146.619 19.4727L146.623 19.4668C146.973 18.9542 147.367 18.3792 147.806 17.7422L148.16 17.1621C148.589 16.4576 148.974 15.8558 149.315 15.3594L149.319 15.3545C149.694 14.824 150.047 14.3888 150.378 14.0576C151.434 13.0016 152.667 12.4513 154.061 12.4512C154.503 12.4512 154.929 12.5476 155.247 12.8271C155.577 13.1174 155.701 13.5259 155.701 13.9551L155.696 14.1025Z" fill="#FF0000"/>
<path d="M137.269 17.8965C137.258 17.7942 137.236 17.7079 137.208 17.6348L137.161 17.5352L137.146 17.5098L137.136 17.4834C137.078 17.3489 137.005 17.2378 136.922 17.1436L136.881 17.1328C136.844 17.1235 136.801 17.1167 136.753 17.1113L136.592 17.1025H136.546C136.435 17.1025 136.326 17.089 136.22 17.0625L136.114 17.0312L136.051 17.0098L135.995 16.9727C135.99 16.9695 135.986 16.9674 135.983 16.9658C135.038 16.9729 133.74 17.6512 132.061 19.2393C130.338 20.9314 129.072 22.3811 128.246 23.5898C127.41 24.8142 126.842 25.8517 126.526 26.708L126.527 26.709C126.272 27.4482 126.075 28.1176 125.931 28.7168C126.1 28.6596 126.311 28.5619 126.564 28.4033L126.576 28.3965C127.072 28.1049 127.586 27.7523 128.119 27.3379C128.66 26.9169 129.186 26.495 129.697 26.0742C130.211 25.6211 130.619 25.2603 130.92 24.9893C131.085 24.8264 131.259 24.685 131.441 24.5938L131.46 24.585L131.479 24.5771C131.585 24.535 131.644 24.4923 131.677 24.46L131.696 24.4404L131.718 24.4229C131.836 24.3283 131.885 24.2599 131.902 24.2246L131.922 24.1846L131.949 24.1484C132.062 23.9978 132.193 23.8641 132.342 23.749C133.438 22.8054 134.323 22.058 134.997 21.5068C135.66 20.9343 136.17 20.4852 136.527 20.1572L136.534 20.1504L136.542 20.1436C136.935 19.8108 137.266 19.5248 137.536 19.2852C137.62 19.2025 137.708 19.1279 137.798 19.0586L137.647 18.9541L137.626 18.9375L137.606 18.918C137.37 18.6814 137.277 18.3745 137.277 18.0625L137.269 17.8965ZM136.637 14.0957V14.5957H136.592V14.0957H136.637ZM137.789 18.2129C137.812 18.3556 137.869 18.4731 137.96 18.5645C138.112 18.6859 138.264 18.7461 138.416 18.7461C138.553 18.7461 138.673 18.7121 138.775 18.6436L138.872 18.5645L138.918 18.5186C139.078 18.1992 139.168 17.775 139.188 17.2461L139.191 17.0127C139.191 16.534 139.064 16.0668 138.808 15.6113L138.689 15.417C138.397 14.9381 137.837 14.6683 137.009 14.6084L136.637 14.5957V14.0957C137.728 14.0957 138.635 14.3823 139.108 15.1445H139.109C139.489 15.7319 139.691 16.3574 139.691 17.0127L139.687 17.2627C139.668 17.7614 139.59 18.206 139.437 18.5801C139.786 18.6185 140.106 18.7415 140.373 18.9717C140.691 19.2457 140.886 19.6297 140.994 20.0684H140.995L141.042 20.2783C141.077 20.4906 141.071 20.7089 140.997 20.9189C140.896 21.2085 140.689 21.4186 140.435 21.5576L140.418 21.5664L140.401 21.5732C140.116 21.7028 139.957 21.8379 139.872 21.9561L139.864 21.9678L139.855 21.9785C139.651 22.2346 139.412 22.6466 139.146 23.2393L139.142 23.248C138.863 23.8367 138.493 24.5427 138.036 25.3652L138.037 25.3662C137.778 25.8554 137.545 26.4074 137.34 27.0234C137.314 27.1089 137.295 27.19 137.275 27.2656C137.684 27.0792 138.119 26.9243 138.581 26.7998C139.002 26.6591 139.335 26.4972 139.589 26.3193L139.607 26.3066L139.628 26.2949C139.875 26.154 140.146 26.0469 140.423 26.0469C140.606 26.0469 140.838 26.0852 141.026 26.25C141.177 26.382 141.249 26.5487 141.275 26.709L141.288 26.8662L141.283 26.96C141.241 27.4143 140.898 27.7539 140.533 28C139.646 28.6427 138.924 29.1161 138.376 29.4062L138.366 29.4111L138.355 29.416C137.908 29.6266 137.407 29.9958 136.854 30.5488C136.747 30.6551 136.501 30.9281 136.104 31.3867C135.917 31.6048 135.752 31.787 135.61 31.9287C135.476 32.0631 135.337 32.1878 135.206 32.2666L135.19 32.2764L135.173 32.2852C134.991 32.376 134.796 32.4187 134.596 32.4258C134.456 32.456 134.316 32.4746 134.174 32.4746C133.948 32.4746 133.744 32.4626 133.574 32.4326C133.448 32.4104 133.261 32.3662 133.108 32.2471L133.045 32.1914C133.038 32.1841 132.999 32.1515 132.901 32.1025V32.1016C132.712 32.0175 132.587 31.8694 132.506 31.7236L132.433 31.5674L132.42 31.5361L132.411 31.5029C132.344 31.2337 132.306 30.9785 132.306 30.7432C132.306 30.1162 132.462 29.4155 132.748 28.6514L132.752 28.6416C133.064 27.8607 133.468 27.0074 133.961 26.083C134.318 25.396 134.581 24.8541 134.758 24.4551C134.356 24.8228 133.906 25.2232 133.403 25.6504L133.381 25.6689L133.356 25.6855C133.32 25.71 133.274 25.7422 133.22 25.7832L133 25.9541L132.972 25.9717C132.863 26.0368 132.768 26.0885 132.694 26.1289L131.503 27.2324L131.488 27.2461L131.473 27.2588C130.626 27.924 129.871 28.5425 129.209 29.1143C128.531 29.7001 127.837 30.2557 127.127 30.7803C126.407 31.3123 125.553 31.8554 124.566 32.4102L124.541 32.4248L124.514 32.4365C124.113 32.6036 123.725 32.7031 123.363 32.7031C122.952 32.7031 122.575 32.5952 122.255 32.3652L122.122 32.2598C121.731 31.9179 121.586 31.4189 121.586 30.8799C121.586 30.7395 121.603 30.6006 121.633 30.4629C121.637 30.3168 121.657 30.1714 121.692 30.0283C121.944 28.9909 122.365 27.7792 122.948 26.3975C123.537 25.0023 124.31 23.5205 125.263 21.9531L125.266 21.9473C126.259 20.3641 127.483 18.8173 128.933 17.3057L128.935 17.3027C130.038 16.1675 131.236 15.348 132.528 14.8613L133.012 14.6816C134.147 14.2905 135.341 14.0957 136.592 14.0957V14.5957L136.082 14.6074C134.901 14.6606 133.778 14.8994 132.714 15.3252C131.498 15.7813 130.357 16.5567 129.293 17.6514C127.864 19.1414 126.663 20.662 125.689 22.2129C124.747 23.7636 123.987 25.2235 123.409 26.5918L123.2 27.0967C122.731 28.2542 122.391 29.2723 122.178 30.1504C122.147 30.2719 122.132 30.3932 122.132 30.5146C122.101 30.6363 122.086 30.7582 122.086 30.8799L122.092 31.0449C122.118 31.4176 122.238 31.6975 122.451 31.8838C122.664 32.0699 122.924 32.174 123.229 32.1973L123.363 32.2031C123.637 32.2031 123.956 32.1266 124.321 31.9746C125.051 31.5642 125.704 31.1619 126.279 30.7686L126.83 30.3779C127.354 29.9903 127.871 29.5859 128.378 29.1641L128.883 28.7363C129.552 28.1586 130.312 27.5351 131.163 26.8662L132.395 25.7256L132.714 25.543C132.79 25.4823 132.858 25.4293 132.919 25.3838L133.079 25.2695C133.383 25.0111 133.668 24.764 133.935 24.5283L134.676 23.8555C135.132 23.4299 135.572 23.0192 135.998 22.624C135.876 22.8976 135.77 23.1863 135.679 23.4902C135.588 23.7638 135.451 24.1135 135.269 24.5391L135.111 24.8896C134.935 25.2717 134.699 25.7482 134.402 26.3184L134.054 26.9883C133.723 27.644 133.444 28.257 133.216 28.8271C132.942 29.557 132.806 30.1958 132.806 30.7432L132.812 30.8857C132.823 31.0339 132.851 31.1995 132.896 31.3818C132.957 31.5338 133.034 31.6249 133.125 31.6553C133.247 31.716 133.338 31.7771 133.398 31.8379C133.467 31.9062 133.629 31.9487 133.886 31.9658L134.174 31.9746C134.295 31.9746 134.417 31.9591 134.539 31.9287C134.653 31.9287 134.759 31.9121 134.855 31.8779L134.949 31.8379C135.101 31.7467 135.36 31.4881 135.725 31.0625C136.12 30.6064 136.378 30.317 136.5 30.1953C137.006 29.6898 137.488 29.3129 137.947 29.0635L138.143 28.9639C138.53 28.7586 139.02 28.4505 139.613 28.04L140.24 27.5957C140.56 27.3828 140.739 27.1699 140.779 26.957L140.788 26.8662C140.788 26.6801 140.695 26.5751 140.509 26.5518L140.423 26.5469C140.271 26.5469 140.089 26.6071 139.876 26.7285C139.572 26.9414 139.191 27.1243 138.735 27.2764C138.279 27.398 137.853 27.55 137.458 27.7324L136.683 28.2344C136.622 27.9303 136.683 27.4742 136.865 26.8662C137.025 26.3871 137.202 25.9419 137.396 25.5312L137.595 25.1328C137.937 24.5171 138.227 23.9692 138.467 23.4902L138.689 23.0342C138.963 22.4262 139.222 21.9701 139.465 21.666C139.617 21.4531 139.861 21.2702 140.195 21.1182C140.529 20.9357 140.636 20.6316 140.515 20.2061C140.344 19.4933 139.945 19.1148 139.319 19.0703L139.191 19.0654C138.705 19.0654 138.263 19.2639 137.868 19.6592C137.595 19.9023 137.26 20.1911 136.865 20.5254C136.5 20.8598 135.983 21.3159 135.314 21.8936C134.645 22.4409 133.764 23.1863 132.669 24.1289C132.547 24.2201 132.441 24.3267 132.35 24.4482C132.289 24.5699 132.182 24.6918 132.03 24.8135C131.939 24.9047 131.817 24.9802 131.665 25.041C131.543 25.1018 131.407 25.2084 131.255 25.3604L130.022 26.4551C129.506 26.8807 128.974 27.3068 128.427 27.7324L128.019 28.04C127.614 28.3365 127.218 28.5991 126.83 28.8271C126.344 29.1311 125.933 29.2831 125.599 29.2832L125.535 29.2773C125.399 29.2508 125.343 29.1309 125.37 28.918C125.522 28.2187 125.751 27.4285 126.055 26.5469C126.389 25.6346 126.982 24.5544 127.833 23.3076C128.684 22.0608 129.978 20.5857 131.711 18.8828C133.414 17.2715 134.843 16.466 135.998 16.4658C136.089 16.4658 136.181 16.4958 136.272 16.5566C136.318 16.5718 136.364 16.5832 136.409 16.5908L136.546 16.6025H136.592C136.744 16.6026 136.88 16.6181 137.002 16.6484C137.123 16.6484 137.199 16.6787 137.229 16.7393C137.382 16.8913 137.503 17.0742 137.595 17.2871C137.716 17.4999 137.777 17.7585 137.777 18.0625L137.789 18.2129Z" fill="#FF0000"/>
<path d="M104.871 29.2363C104.871 28.1544 105.133 26.9524 105.634 25.6377C106.132 24.3289 106.8 22.9794 107.634 21.5898L107.638 21.583C108.504 20.1902 109.48 18.8895 110.563 17.6816C111.682 16.4087 112.827 15.402 114.002 14.6719C115.165 13.9488 116.258 13.5145 117.272 13.4131L117.297 13.4102H117.322C117.832 13.4102 118.342 13.5362 118.846 13.7715L119.062 13.8789L119.397 14.0469C119.498 14.0936 119.586 14.1311 119.664 14.1602C119.741 14.189 119.802 14.2077 119.849 14.2188C119.871 14.2242 119.889 14.2277 119.902 14.2295C119.909 14.2304 119.914 14.2312 119.917 14.2314C119.92 14.2316 119.921 14.2314 119.922 14.2314V14.7314L119.835 14.7246C119.678 14.7032 119.462 14.6283 119.187 14.5L118.827 14.3213C118.31 14.0477 117.809 13.9102 117.322 13.9102C116.41 14.0014 115.391 14.3973 114.266 15.0967L113.845 15.3711C112.863 16.043 111.894 16.9246 110.936 18.0156C109.871 19.2015 108.914 20.4793 108.062 21.8477C107.242 23.216 106.587 24.5383 106.101 25.8154C105.614 27.0925 105.371 28.2329 105.371 29.2363V29.7842C105.401 29.9362 105.432 30.0882 105.462 30.2402C105.553 30.6356 105.736 31.0769 106.01 31.5635C106.314 32.0193 106.755 32.247 107.332 32.2471H107.378C107.53 32.2471 107.774 32.2926 108.108 32.3838C108.443 32.475 108.762 32.567 109.065 32.6582C109.293 32.7494 109.462 32.8063 109.57 32.8291L109.659 32.8398C109.842 32.8397 110.13 32.7642 110.525 32.6123C110.951 32.4907 111.377 32.3387 111.803 32.1562C112.186 32.0031 112.504 31.8828 112.759 31.7939C112.796 31.9758 112.918 32.0767 113.011 32.125L112.897 31.7451L113.026 32.1328C113.035 32.1369 113.042 32.1424 113.05 32.1455C113.129 32.1773 113.194 32.1768 113.205 32.1768C113.235 32.1768 113.24 32.1731 113.197 32.1826C113.163 32.1903 113.112 32.2025 113.045 32.2227C112.786 32.3094 112.435 32.4416 111.988 32.6201C111.556 32.8047 111.123 32.9587 110.688 33.084C110.298 33.2333 109.939 33.3397 109.659 33.3398C109.532 33.3398 109.397 33.3038 109.295 33.2725C109.184 33.2384 109.054 33.1904 108.906 33.1318L107.977 32.8662C107.644 32.7756 107.457 32.7471 107.378 32.7471H107.332C106.644 32.747 106.072 32.4808 105.672 31.9502L105.594 31.8408L105.583 31.8242L105.574 31.8086C105.285 31.2949 105.08 30.8081 104.975 30.3525L104.974 30.3457L104.972 30.3379L104.881 29.8818L104.871 29.834V29.2363ZM118.807 26.959C118.793 26.9599 118.784 26.9612 118.78 26.9619C118.775 26.963 118.776 26.9634 118.783 26.9609C118.797 26.9564 118.82 26.9442 118.856 26.9268C119.018 26.8111 119.331 26.6027 119.781 26.3115C120.335 25.9425 120.87 25.6807 121.336 25.6807C121.487 25.6807 121.69 25.7051 121.866 25.8311C122.073 25.979 122.155 26.201 122.155 26.4082C122.155 26.6008 122.077 26.7701 122.008 26.8887C121.938 27.0086 121.842 27.1302 121.735 27.2549L121.736 27.2559C121.504 27.5653 121.115 27.8897 120.62 28.2305C120.108 28.5921 119.52 29.0142 118.855 29.4971L118.856 29.498C118.2 29.9979 117.58 30.3963 116.998 30.6875L116.931 30.7207L116.856 30.7334C116.763 30.7491 116.674 30.7873 116.585 30.8584L116.573 30.8682C116.387 31.008 116.148 31.0999 115.896 31.167L113.368 32.251L113.006 31.7158C113.226 31.657 113.296 31.6659 113.217 31.7451L113.171 31.791L115.726 30.6963C115.908 30.6507 116.056 30.5968 116.17 30.5342L116.272 30.4688C116.424 30.3472 116.592 30.2707 116.774 30.2402C117.322 29.9665 117.915 29.5862 118.554 29.0996C119.223 28.6131 119.816 28.1871 120.333 27.8223C120.758 27.5298 121.068 27.2725 121.261 27.0498L121.336 26.9561C121.549 26.7128 121.655 26.5298 121.655 26.4082C121.655 26.2755 121.574 26.2012 121.411 26.1846L121.336 26.1807C121.032 26.1807 120.606 26.3627 120.059 26.7275C119.542 27.062 119.222 27.275 119.101 27.3662C118.979 27.427 118.888 27.458 118.827 27.458C118.796 27.4583 118.614 27.5493 118.28 27.7314C117.824 27.9747 117.489 28.1577 117.276 28.2793L116.957 28.4502C116.851 28.5034 116.744 28.5521 116.638 28.5977C116.455 28.6889 116.181 28.7954 115.816 28.917C115.482 29.0386 114.98 29.2371 114.312 29.5107L113.887 29.6758C113.493 29.824 113.194 29.9212 112.988 29.9668C112.745 30.0275 112.517 30.0576 112.305 30.0576L112.116 30.0664C111.9 30.0835 111.597 30.126 111.21 30.1943C110.997 30.2855 110.784 30.3465 110.571 30.377L110.264 30.4111C110.165 30.4187 110.07 30.4228 109.979 30.4229V29.9229C110.133 29.9228 110.307 29.9094 110.5 29.8818C110.666 29.8581 110.837 29.8106 111.013 29.7354L111.065 29.7119L111.123 29.7021C111.639 29.6111 112.043 29.5576 112.305 29.5576C112.47 29.5576 112.657 29.534 112.867 29.4814L112.88 29.4785C113.11 29.4273 113.519 29.2888 114.126 29.0459C114.794 28.7726 115.302 28.5722 115.646 28.4473L115.658 28.4434C116.016 28.324 116.264 28.2265 116.414 28.1514L116.428 28.1445L116.44 28.1387C116.635 28.0554 116.831 27.9575 117.028 27.8447C117.248 27.7193 117.588 27.5337 118.045 27.29C118.212 27.1991 118.346 27.1283 118.444 27.0791C118.493 27.0547 118.539 27.0327 118.579 27.0156C118.599 27.0073 118.623 26.9963 118.65 26.9873C118.658 26.9846 118.723 26.9625 118.807 26.959ZM108.473 28.7354C108.473 28.0435 108.659 27.351 109.031 26.6592L109.203 26.3633C109.264 26.2114 109.37 26.1193 109.521 26.0889C109.673 26.0585 109.841 26.044 110.023 26.0439L110.286 26.0527C110.56 26.0698 110.868 26.1123 111.21 26.1807C111.696 26.2718 112.137 26.3174 112.532 26.3174C112.928 26.3174 113.247 26.2564 113.49 26.1348C113.733 26.0131 114.144 25.8002 114.722 25.4961C115.01 25.3441 115.303 25.1847 115.6 25.0176L116.501 24.4932C117.14 24.0979 117.641 23.7019 118.006 23.3066C118.804 22.4286 119.405 21.7024 119.808 21.127L119.968 20.8896C120.393 20.2511 120.774 19.6277 121.108 19.0195L121.062 19.0645C121.007 19.1202 121.002 19.0613 121.049 18.8867L121.546 19.2598C121.204 19.8816 120.817 20.5178 120.384 21.167C119.966 21.8087 119.291 22.6367 118.376 23.6436L118.374 23.6465C117.969 24.0853 117.427 24.5075 116.764 24.918L116.758 24.9219C116.143 25.291 115.542 25.6298 114.955 25.9385C114.377 26.2426 113.962 26.4578 113.714 26.582C113.377 26.7505 112.973 26.8174 112.532 26.8174C112.099 26.8174 111.627 26.7674 111.117 26.6719L111.111 26.6709C110.676 26.5839 110.315 26.5439 110.023 26.5439C109.884 26.544 109.763 26.5555 109.656 26.5742L109.651 26.5889L109.629 26.625C109.182 27.3508 108.973 28.0523 108.973 28.7354L108.977 28.8848C108.995 29.2108 109.075 29.4678 109.198 29.6719C109.317 29.807 109.538 29.9229 109.979 29.9229V30.4229L109.78 30.416C109.334 30.3828 109.005 30.2329 108.792 29.9668C108.606 29.6741 108.501 29.3231 108.478 28.9141L108.473 28.7354ZM116.981 17.252C117.254 17.3052 117.55 17.5443 117.869 17.9697C117.869 18.365 117.839 18.791 117.778 19.2471C117.748 19.7032 117.413 20.3721 116.774 21.2539C116.562 21.4972 116.288 21.7256 115.953 21.9385C115.619 22.121 115.224 22.4405 114.768 22.8965L114.38 23.2754C114.015 23.6232 113.718 23.8774 113.49 24.0371L113.08 24.3105C112.958 24.3866 112.852 24.4475 112.761 24.4932L112.621 24.5703C112.479 24.6558 112.328 24.7666 112.168 24.9033C112.046 24.9337 111.924 24.9637 111.803 24.9941H111.438V24.4941H111.743C111.808 24.4779 111.873 24.4606 111.938 24.4443C112.139 24.2804 112.339 24.1451 112.537 24.0459C112.687 23.9711 112.907 23.8351 113.204 23.627C113.47 23.4405 113.87 23.0866 114.414 22.543C114.877 22.0804 115.305 21.7265 115.695 21.5098C115.989 21.3219 116.217 21.1286 116.39 20.9336C116.689 20.5176 116.91 20.1626 117.058 19.8672C117.212 19.5592 117.27 19.3467 117.279 19.2139L117.28 19.1973L117.282 19.1807C117.332 18.8088 117.359 18.4616 117.366 18.1387C117.245 17.9919 117.139 17.8916 117.051 17.8271C116.94 17.7463 116.881 17.7403 116.866 17.7402C116.791 17.7402 116.596 17.7804 116.237 17.9297L116.235 17.9307C115.736 18.1365 115.332 18.3233 115.021 18.4922C114.774 18.6411 114.358 18.9955 113.753 19.6006L113.752 19.5996C113.063 20.319 112.436 21.0234 111.869 21.71L111.862 21.7178L111.483 21.3906C112.061 20.6913 112.7 19.9768 113.399 19.2471C114.007 18.6391 114.464 18.244 114.768 18.0615C115.018 17.9247 115.32 17.7789 115.674 17.625L116.045 17.4678C116.41 17.3158 116.684 17.2402 116.866 17.2402L116.981 17.252ZM109.933 24.0371C109.933 24.0066 109.937 23.9718 109.944 23.9336L109.979 23.8086C110.039 23.687 110.085 23.5649 110.115 23.4434C110.45 22.7441 110.906 22.0595 111.483 21.3906L111.861 21.7178C111.315 22.3499 110.89 22.9898 110.578 23.6357C110.545 23.7527 110.501 23.8671 110.448 23.9795C110.441 24.0032 110.437 24.0207 110.435 24.0322C110.432 24.0461 110.433 24.0467 110.433 24.0371L110.444 24.1436C110.452 24.1706 110.461 24.1903 110.471 24.2051C110.48 24.2202 110.494 24.2383 110.517 24.2578L110.612 24.3193C110.836 24.4314 111.107 24.4941 111.438 24.4941V24.9941C111.092 24.9941 110.781 24.9366 110.505 24.8203L110.389 24.7666C110.123 24.6336 109.973 24.4308 109.939 24.1582L109.933 24.0371ZM121.564 17.0576C121.564 16.6054 121.482 16.1534 121.319 15.7012L121.245 15.5068C121.059 15.0545 120.709 14.7997 120.197 14.7432L119.968 14.7314V14.2314C120.353 14.2315 120.715 14.3097 121.025 14.498C121.34 14.6893 121.565 14.972 121.707 15.3164C121.943 15.8888 122.064 16.4702 122.064 17.0576L122.051 17.3369C122.023 17.6177 121.955 17.9013 121.852 18.1865C121.736 18.5054 121.63 18.7743 121.538 18.9922C121.528 19.0291 121.521 19.0556 121.518 19.0732C121.512 19.1007 121.517 19.0878 121.517 19.0537C121.517 19.0497 121.515 19.0415 121.515 19.0303L121.062 18.8369L121.503 18.9619C121.499 18.9445 121.497 18.9244 121.489 18.9043C121.46 18.8249 121.37 18.6582 121.157 18.6016C121.174 18.5596 121.193 18.5169 121.211 18.4717L121.382 18.0156C121.473 17.7649 121.53 17.5227 121.553 17.2891L121.564 17.0576ZM119.968 14.2314V14.7314H119.922V14.2314H119.968Z" fill="#FF0000"/>
<path d="M93.6201 2.32617V2.82617H93.5742V2.32617H93.6201ZM94.5557 21.2773C94.5405 21.3077 94.5167 21.3451 94.4863 21.3906C94.4255 21.4819 94.3955 21.5283 94.3955 21.5283C94.2738 21.6197 94.0607 21.8627 93.7568 22.2578C93.4832 22.6226 93.1946 23.0332 92.8906 23.4893C92.5865 23.915 92.3281 24.2954 92.1152 24.6299C91.9936 24.8427 91.7196 25.2833 91.2939 25.9521C90.8986 26.5907 90.4882 27.1996 90.0625 27.7773C89.4848 28.5983 88.9068 29.4493 88.3291 30.3311C87.7817 31.1825 87.2494 32.0498 86.7324 32.9316C86.3371 33.6615 85.8957 34.5588 85.4092 35.623C84.9531 36.7178 84.5281 38.2841 84.1328 40.3213C83.7983 40.8991 83.5699 41.4314 83.4482 41.918L83.3682 42.2715C83.2998 42.6132 83.2657 42.9209 83.2656 43.1943L83.2773 43.4912C83.2849 43.5976 83.2963 43.7115 83.3115 43.833C83.3419 44.1067 83.3564 44.2441 83.3564 44.2441V44.1523C83.4173 44.3348 83.6002 44.4568 83.9043 44.5176C84.178 44.6088 84.3909 44.6543 84.543 44.6543H84.5889C84.9346 44.4415 85.2574 44.159 85.5566 43.8066L85.6836 43.6504C86.0179 43.2248 86.3066 42.8141 86.5498 42.4189C86.7549 42.1455 86.9174 41.9405 87.0371 41.8037L87.1426 41.6895C87.3023 41.5982 87.4449 41.4639 87.5703 41.2871L87.6904 41.0967C87.8425 40.823 87.918 40.6855 87.918 40.6855L88.3291 40.3213C88.6332 40.1084 88.9371 39.88 89.2412 39.6367C89.5453 39.4239 89.6973 39.3174 89.6973 39.3174C89.8796 39.2566 90.1228 39.1199 90.4268 38.9072C90.7192 38.7477 90.8841 38.5763 90.9209 38.3936L90.9287 38.3145C90.9287 38.1017 90.7921 37.9341 90.5186 37.8125C90.3361 37.7517 90.0321 37.8127 89.6064 37.9951L89.2812 38.1426C88.9505 38.3023 88.6023 38.4965 88.2373 38.7246L86.915 39.5459C86.5502 39.8196 86.3217 40.0015 86.2305 40.0928C86.2761 39.9786 86.3308 39.6594 86.3936 39.1348L86.459 38.542C86.5388 37.7705 86.8393 36.801 87.3613 35.6338L87.5986 35.1211C88.4805 33.3269 89.1803 32.0948 89.6973 31.4258C90.2141 30.7569 90.5337 30.3464 90.6553 30.1943H90.7012L91.2256 29.3965C91.408 29.1228 91.5982 28.8416 91.7959 28.5527C92.1912 27.9446 92.5407 27.4276 92.8447 27.002C93.1109 26.6293 93.2608 26.4313 93.2939 26.4082H93.3008L93.3467 26.3633C93.6812 26.0288 94.0461 25.6029 94.4414 25.0859C94.8366 24.5387 95.2162 24.0216 95.5811 23.5352H95.627L95.6729 23.5811C95.8857 23.6723 96.1598 23.8088 96.4941 23.9912C96.8283 24.1431 97.1017 24.2186 97.3145 24.2188C97.5577 24.2188 97.6952 24.1278 97.7256 23.9453V23.9912C97.7941 23.7173 97.8364 23.4861 97.8535 23.2979L97.8623 23.124C97.8623 23.0101 97.8447 22.8878 97.8105 22.7568L97.7715 22.623C97.7107 22.4406 97.5887 22.1967 97.4062 21.8926V21.9385C97.4062 21.9385 97.3908 21.8775 97.3604 21.7559C97.33 21.6343 97.3145 21.5122 97.3145 21.3906C97.4968 21.2386 97.6344 21.1331 97.7256 21.0723C97.7864 21.0266 97.8474 20.9771 97.9082 20.9238L98.0898 20.7529C98.4243 20.4184 98.9267 19.9006 99.5957 19.2012C99.9453 18.8364 100.318 18.4526 100.713 18.0498L101.968 16.7842C102.85 15.9023 103.777 15.035 104.75 14.1836C105.723 13.3018 106.666 12.5264 107.578 11.8574L109.904 10.1699C110.072 10.0635 110.262 9.94565 110.475 9.81641L111.182 9.39453C111.455 9.22733 111.702 9.07941 111.923 8.9502L112.505 8.61914C112.839 8.37595 113.158 8.02612 113.462 7.57031C113.796 7.11417 114.086 6.82476 114.329 6.70312H114.375L115.119 6.25C115.809 5.82245 116.336 5.47189 116.701 5.19824C117.089 4.92463 117.399 4.68472 117.633 4.47949L117.842 4.28613C118.047 4.08087 118.269 3.89273 118.509 3.72168L118.754 3.55566C119.605 2.97807 120.168 2.53745 120.441 2.2334C120.746 1.89889 120.882 1.65498 120.852 1.50293C120.852 1.32067 120.822 1.21398 120.761 1.18359C120.548 1.03157 120.274 0.879565 119.939 0.727539C119.689 0.613568 119.421 0.54218 119.136 0.513672L118.845 0.5C118.48 0.500016 118.099 0.590997 117.704 0.773438C117.339 0.925491 116.99 1.21417 116.655 1.63965C116.625 1.67006 116.564 1.68555 116.473 1.68555C116.412 1.65534 116.305 1.68624 116.153 1.77734L116.108 1.86816C116.138 1.89886 116.062 2.00547 115.88 2.1875L115.774 2.28418C115.677 2.36405 115.606 2.3929 115.561 2.37012L115.515 2.41602L115.156 2.76953C114.826 3.08884 114.58 3.30491 114.42 3.41895C114.238 3.57093 114.085 3.67748 113.964 3.73828C113.842 3.76879 113.584 3.90532 113.188 4.14844V4.19434C113.006 4.31598 112.748 4.54443 112.413 4.87891L111.979 5.32324C111.843 5.46766 111.713 5.6083 111.592 5.74512C111.349 5.98836 111.197 6.11035 111.136 6.11035L111.045 6.15625C110.984 6.1867 110.771 6.38416 110.406 6.74902L109.402 7.75195C109.151 7.98009 108.986 8.1227 108.906 8.17969L108.855 8.20898H108.81C107.745 8.84752 106.65 9.63753 105.525 10.5801C104.431 11.4924 103.427 12.4051 102.515 13.3174C101.602 14.1992 100.888 14.9291 100.371 15.5068L100.325 15.5977C100.356 15.6281 100.052 15.963 99.4131 16.6016C98.8049 17.2097 98.1816 17.8641 97.543 18.5635C97.4213 18.5635 97.2384 18.609 96.9951 18.7002V17.4678C96.904 17.217 96.8211 16.8722 96.7471 16.4336L96.6768 15.9629C96.6084 15.4613 96.565 15.0879 96.5479 14.8428L96.5391 14.6406C96.4479 13.6677 96.3268 12.8312 96.1748 12.1318C96.0607 11.5843 95.9894 11.1132 95.9609 10.7197L95.9463 10.3525C95.9463 9.37943 95.8553 8.57317 95.6729 7.93457C95.5208 7.26564 95.3843 6.58116 95.2627 5.88184C95.1107 4.8785 94.9277 4.11847 94.7148 3.60156C94.5551 3.14906 94.2557 2.89432 93.8164 2.83789L93.6201 2.82617V2.32617C93.9738 2.32617 94.3094 2.41091 94.5938 2.6123C94.8739 2.81091 95.0626 3.09419 95.1807 3.42188C95.4136 3.99184 95.6021 4.79134 95.7549 5.79688C95.875 6.48737 96.0093 7.16259 96.1592 7.82227C96.3541 8.51652 96.4463 9.36405 96.4463 10.3525L96.46 10.6855C96.4862 11.0461 96.5519 11.4912 96.6631 12.0254C96.7812 12.5688 96.8806 13.1868 96.9619 13.8779L97.0371 14.5938L97.0391 14.6172V14.6406L97.0469 14.8145C97.0521 14.8874 97.0605 14.9754 97.0713 15.0791L97.1719 15.8955C97.2393 16.39 97.3126 16.7721 97.3887 17.0518L97.4658 17.2979L97.4951 17.3799V17.877C98.0268 17.3027 98.5481 16.7595 99.0596 16.248C99.3776 15.93 99.6062 15.6933 99.75 15.5352C99.8031 15.4768 99.8386 15.4333 99.8623 15.4043L99.8779 15.374L99.9238 15.2832L99.9541 15.2236L99.998 15.1738C100.526 14.5833 101.251 13.8436 102.167 12.958C103.089 12.0359 104.102 11.1153 105.205 10.1963C106.346 9.24006 107.463 8.43434 108.553 7.78027L108.671 7.70898H108.696C108.776 7.64218 108.893 7.53869 109.05 7.39648C109.384 7.0625 109.719 6.72949 110.053 6.39551C110.237 6.21165 110.386 6.06596 110.499 5.96094C110.555 5.90879 110.606 5.86279 110.65 5.82617C110.682 5.80025 110.747 5.74592 110.821 5.70898L110.987 5.625C111.042 5.58073 111.124 5.50547 111.238 5.3916C111.484 5.11611 111.758 4.82719 112.06 4.52539C112.294 4.29069 112.506 4.09492 112.688 3.94629V3.86914L112.927 3.72266C113.129 3.5983 113.303 3.49734 113.445 3.42188C113.548 3.36778 113.657 3.31405 113.76 3.27832C113.832 3.23893 113.945 3.16496 114.101 3.03516L114.114 3.02344L114.13 3.01172C114.304 2.88711 114.641 2.58149 115.161 2.06152L115.207 2.0166L115.462 1.76172L115.551 1.80566C115.577 1.77884 115.597 1.75578 115.614 1.7373L115.661 1.64453L115.706 1.55371L115.771 1.42285L115.896 1.34863C115.99 1.2923 116.097 1.23729 116.21 1.20508C116.255 1.19223 116.317 1.17902 116.389 1.17578C116.725 0.783204 117.097 0.484319 117.512 0.311523C117.955 0.109469 118.401 1.61566e-05 118.845 0C119.248 0 119.633 0.0678944 119.993 0.208008L120.146 0.272461C120.493 0.430071 120.792 0.595422 121.037 0.768555C121.213 0.880197 121.282 1.05268 121.31 1.14941C121.339 1.25345 121.348 1.36335 121.35 1.46484C121.376 1.69729 121.286 1.90542 121.208 2.04492C121.113 2.21309 120.975 2.38917 120.812 2.56934L120.811 2.56836C120.491 2.92274 119.882 3.39415 119.034 3.96973L119.022 3.97754C118.718 4.17129 118.443 4.3924 118.195 4.63965C117.922 4.91325 117.514 5.23631 116.989 5.60645L116.988 5.60547C116.48 5.98563 115.691 6.49641 114.632 7.13184L114.513 7.20312H114.473C114.339 7.29931 114.138 7.49592 113.875 7.85254C113.549 8.34036 113.192 8.73712 112.799 9.02344L112.772 9.04297L112.744 9.05762C112.42 9.2344 111.987 9.4886 111.442 9.82129L111.436 9.8252C110.926 10.1251 110.507 10.3783 110.181 10.5859L107.871 12.2617C106.975 12.9187 106.047 13.6833 105.086 14.5547L105.079 14.5605C104.114 15.4049 103.195 16.264 102.321 17.1377C101.441 18.0176 100.653 18.8201 99.9561 19.5469C99.2867 20.2467 98.7829 20.7679 98.4443 21.1064C98.3081 21.2427 98.1682 21.3646 98.0254 21.4717L98.0146 21.4805L98.0029 21.4883C97.9653 21.5133 97.9112 21.5523 97.8398 21.6084C97.8418 21.6171 97.8435 21.626 97.8457 21.6348C97.8523 21.6613 97.845 21.6311 97.8516 21.6572C97.852 21.6591 97.8531 21.6653 97.8535 21.667C97.9864 21.8904 98.0962 22.0962 98.1748 22.2803L98.2451 22.4648C98.3186 22.6852 98.3623 22.9064 98.3623 23.124L98.3516 23.3408C98.3311 23.5682 98.282 23.8279 98.2109 24.1123L98.1963 24.1104C98.1488 24.2876 98.0485 24.452 97.877 24.5664C97.6958 24.6871 97.4902 24.7188 97.3145 24.7188C97.076 24.7187 96.8194 24.6572 96.5547 24.5576L96.2871 24.4463L96.2705 24.4385L96.2549 24.4297C96.0578 24.3222 95.8847 24.2351 95.7373 24.1631C95.4498 24.5499 95.1528 24.9551 94.8467 25.3789L94.8389 25.3896C94.4348 25.918 94.0548 26.3622 93.7002 26.7168L93.6543 26.7627L93.5996 26.8164C93.5943 26.8232 93.5891 26.8309 93.583 26.8389C93.5127 26.9302 93.4033 27.0801 93.252 27.292C92.9534 27.71 92.6076 28.221 92.2148 28.8252L92.208 28.835C91.8149 29.4096 91.452 29.953 91.1201 30.4658L90.9727 30.6943H90.9004C90.7351 30.9055 90.4652 31.2504 90.0928 31.7324C89.6097 32.3577 88.9293 33.5485 88.0479 35.3418C87.3895 36.7192 87.0385 37.7973 86.9561 38.5938C86.9428 38.7218 86.9277 38.8424 86.915 38.9561C87.2392 38.7558 87.5924 38.5385 87.9727 38.3008C88.476 37.9862 88.9551 37.7298 89.4092 37.5352C89.6399 37.4363 89.8575 37.3619 90.0557 37.3223C90.1984 37.2937 90.3582 37.2776 90.5176 37.3008L90.6768 37.3379L90.6992 37.3457L90.7217 37.3555C91.0669 37.5089 91.3863 37.7867 91.4248 38.2246L91.4287 38.3145L91.4248 38.4072C91.381 38.8491 91.0281 39.142 90.6924 39.3301C90.4204 39.5192 90.1654 39.6685 89.9385 39.7578C89.9247 39.7674 89.9354 39.7617 89.9199 39.7725C89.9011 39.7857 89.9285 39.7667 89.9092 39.7803C89.9075 39.7814 89.9051 39.783 89.9033 39.7842C89.8913 39.7926 89.9085 39.7796 89.8965 39.7881C89.8946 39.7894 89.8734 39.8044 89.8701 39.8066L89.8682 39.8086L89.8623 39.8115C89.8473 39.822 89.8706 39.8068 89.8555 39.8174C89.8289 39.8359 89.8665 39.8095 89.8398 39.8281C89.8346 39.8318 89.8371 39.8304 89.832 39.834L89.8291 39.835C89.8254 39.8375 89.826 39.8377 89.8271 39.8369C89.8166 39.8443 89.8342 39.8321 89.8232 39.8398C89.8093 39.8496 89.8199 39.8416 89.8057 39.8516C89.8028 39.8536 89.7998 39.8563 89.7969 39.8584L89.793 39.8604L89.79 39.8633C89.7891 39.8639 89.7878 39.8638 89.7871 39.8643C89.7751 39.8727 89.7809 39.8693 89.7686 39.8779C89.7369 39.9001 89.76 39.8835 89.7275 39.9062L89.7266 39.9072L89.7246 39.9082L89.7236 39.9092L89.7217 39.9102C89.731 39.9036 89.7098 39.919 89.7197 39.9121L89.7168 39.9141C89.709 39.9195 89.7135 39.9166 89.7061 39.9219C89.669 39.9478 89.7199 39.9114 89.6826 39.9375C89.6818 39.9381 89.661 39.9529 89.6592 39.9541C89.6524 39.9588 89.6601 39.9543 89.6533 39.959L89.6514 39.96L89.6504 39.9609C89.6447 39.9649 89.6528 39.9592 89.6475 39.9629C89.6303 39.9749 89.652 39.9596 89.6348 39.9717C89.6063 39.9916 89.6128 39.987 89.583 40.0078C89.577 40.012 89.5823 40.0084 89.5762 40.0127L89.5732 40.0146L89.5713 40.0156L89.5693 40.0176C89.5655 40.0203 89.5595 40.0237 89.5557 40.0264C89.5533 40.028 89.555 40.0277 89.5527 40.0293C89.5503 40.031 89.545 40.0333 89.5479 40.0312C89.2469 40.2719 88.9447 40.4976 88.6426 40.71C88.6402 40.7121 88.6381 40.7147 88.6357 40.7168C88.6288 40.723 88.618 40.7333 88.6113 40.7393C88.5968 40.7521 88.5779 40.7684 88.5645 40.7803C88.5278 40.8128 88.5571 40.7867 88.5215 40.8184C88.5199 40.8198 88.5023 40.8357 88.501 40.8369L88.4717 40.8633L88.4629 40.8711C88.4425 40.8892 88.4644 40.8689 88.4443 40.8867C88.4246 40.9043 88.4296 40.9005 88.4111 40.917C88.3751 40.9491 88.4156 40.9134 88.3809 40.9443C88.378 40.9469 88.3688 40.9547 88.3662 40.957C88.3635 40.9594 88.3556 40.9669 88.3535 40.9688C88.3283 40.9912 88.3532 40.9688 88.3291 40.9902C88.3205 40.9979 88.3181 40.9989 88.3125 41.0039C88.3121 41.0046 88.3122 41.0066 88.3115 41.0078C88.3056 41.0186 88.3118 41.0075 88.3057 41.0186C88.3037 41.0222 88.3038 41.0217 88.3018 41.0254C88.2973 41.0333 88.2976 41.0334 88.2988 41.0312L88.2832 41.0586C88.2812 41.0623 88.2777 41.0691 88.2754 41.0732L88.2744 41.0742L88.2725 41.0771L88.2715 41.0791L88.2705 41.0811L88.2695 41.083L88.2666 41.0889C88.2599 41.101 88.2685 41.0855 88.2617 41.0977C88.2579 41.1045 88.261 41.0981 88.2568 41.1055L88.2559 41.1074L88.2549 41.1094C88.2518 41.115 88.257 41.1067 88.2539 41.1123L88.2529 41.1133L88.248 41.123C88.2429 41.1323 88.2474 41.1225 88.2422 41.1318L88.2412 41.1338C88.2402 41.1356 88.2413 41.1349 88.2402 41.1367C88.2397 41.1377 88.2376 41.1401 88.2373 41.1406C88.2335 41.1475 88.2391 41.1388 88.2354 41.1455C88.2338 41.1482 88.2339 41.1476 88.2324 41.1504C88.2317 41.1517 88.2277 41.1598 88.2275 41.1602C88.2264 41.1622 88.2163 41.1788 88.2158 41.1797C88.2093 41.1914 88.212 41.1878 88.2051 41.2002C88.2016 41.2065 88.197 41.2141 88.1934 41.2207L88.168 41.2656C88.161 41.2782 88.1624 41.2772 88.1553 41.29L88.1514 41.2959C88.1503 41.2979 88.1517 41.2965 88.1504 41.2988L88.1445 41.3076C88.1384 41.3187 88.1478 41.3034 88.1416 41.3145C88.1341 41.3279 88.1421 41.3129 88.1348 41.3262C88.1311 41.3328 88.1306 41.3323 88.127 41.3389C87.958 41.6429 87.7415 41.8986 87.4668 42.0762C87.3683 42.1816 87.2001 42.3858 86.9561 42.7109C86.7054 43.1154 86.4122 43.5323 86.0762 43.96C85.7112 44.4244 85.3037 44.8012 84.8506 45.0801L84.7305 45.1543H84.543C84.3135 45.1543 84.0456 45.0897 83.7646 44.9971C83.4095 44.9183 83.0238 44.7336 82.8828 44.3105L82.9297 44.2949L82.8604 44.2988L82.8594 44.2979C82.8582 44.2877 82.8606 44.3036 82.8594 44.293C82.8591 44.2902 82.8587 44.2921 82.8584 44.2891V44.2842C82.858 44.2803 82.858 44.2784 82.8574 44.2734C82.8529 44.2327 82.8601 44.3006 82.8555 44.2588C82.8553 44.2571 82.8557 44.2567 82.8555 44.2549C82.8551 44.252 82.8548 44.2556 82.8545 44.2529V44.2461L82.8525 44.2363V44.2285C82.8524 44.2268 82.8518 44.2274 82.8516 44.2256V44.2207C82.847 44.1799 82.8533 44.2381 82.8486 44.1963C82.848 44.1905 82.8465 44.1757 82.8457 44.1689C82.8431 44.1454 82.8446 44.1636 82.8418 44.1387C82.841 44.1316 82.8398 44.1139 82.8389 44.1055C82.8385 44.102 82.8383 44.0992 82.8379 44.0957C82.8375 44.0926 82.8373 44.095 82.8369 44.0918C82.8364 44.0876 82.8364 44.0912 82.8359 44.0869V44.0801L82.835 44.0781V44.0703L82.834 44.0693C82.8322 44.0533 82.8348 44.0744 82.833 44.0586V44.0518L82.832 44.0508C82.8316 44.0466 82.8325 44.0529 82.832 44.0488C82.831 44.0397 82.8321 44.0473 82.8311 44.0381C82.8292 44.0216 82.8319 44.0448 82.8301 44.0283C82.8278 44.0081 82.8313 44.0377 82.8291 44.0176L82.8281 44.0146V44.0117C82.8275 44.0065 82.8278 44.0127 82.8271 44.0068C82.8269 44.0049 82.8274 44.0029 82.8271 44.001L82.8262 43.999V43.9961C82.8254 43.9894 82.8259 43.9911 82.8252 43.9844C82.8251 43.9832 82.8243 43.9807 82.8242 43.9795C82.8241 43.9785 82.8244 43.975 82.8242 43.9736L82.8232 43.9717V43.9648L82.8223 43.9629C82.8203 43.9454 82.8223 43.9559 82.8203 43.9385C82.8201 43.9367 82.8149 43.8927 82.8145 43.8887L82.8154 43.8877C82.7839 43.6333 82.7656 43.4012 82.7656 43.1943C82.7657 42.7766 82.8348 42.3083 82.9629 41.7959C83.0932 41.2748 83.3295 40.7252 83.6572 40.1475C84.0508 38.135 84.479 36.5569 84.9482 35.4307L84.9512 35.4229L84.9551 35.415C85.4446 34.3442 85.8906 33.4362 86.293 32.6934L86.2969 32.6855L86.3008 32.6787C86.8211 31.7911 87.3572 30.9187 87.9082 30.0615L87.9102 30.0576C88.4908 29.1713 89.0722 28.3151 89.6533 27.4893L89.6592 27.4805C90.0765 26.9141 90.4806 26.3171 90.8691 25.6895L90.8721 25.6836C91.299 25.0128 91.566 24.5825 91.6807 24.3818L91.6865 24.3711L91.6934 24.3613C91.9122 24.0174 92.1757 23.6291 92.4834 23.1982C92.7883 22.7413 93.08 22.3279 93.3574 21.958L93.3604 21.9531C93.5158 21.7511 93.6525 21.5818 93.7686 21.4492C93.8523 21.3536 93.9371 21.2622 94.0195 21.1895C94.0201 21.1886 94.0212 21.1874 94.0225 21.1855L94.0234 21.1846L94.0244 21.1836C94.0221 21.187 94.0278 21.179 94.0254 21.1826C94.0186 21.1928 94.0336 21.1689 94.0264 21.1797C94.0269 21.1789 94.0278 21.1776 94.0283 21.1768L94.0312 21.1738C94.0338 21.1699 94.0296 21.1758 94.0322 21.1719L94.0332 21.1709L94.0342 21.1689L94.0352 21.167C94.0374 21.1637 94.0353 21.1668 94.0371 21.1641C94.035 21.1673 94.0384 21.1626 94.04 21.1602C94.0499 21.1453 94.0395 21.161 94.0498 21.1455C94.0511 21.1435 94.0534 21.1407 94.0547 21.1387L94.0576 21.1328L94.0586 21.1318L94.0596 21.1299L94.0684 21.1182L94.0703 21.1152V21.1133C94.0722 21.1104 94.0734 21.1072 94.0752 21.1045C94.0711 20.9192 94.058 20.7576 94.0342 20.6182L94.002 20.4629L93.9932 20.4307L93.9902 20.3975C93.9628 20.1507 93.9466 19.9466 93.9434 19.7979C93.8527 18.8685 93.7543 18.0817 93.6484 17.4355L93.54 16.8369C93.4281 16.2771 93.3088 15.781 93.1826 15.3477L93.0547 14.9355C92.9146 14.5151 92.7833 14.0777 92.6611 13.624L92.542 13.165C92.4231 12.6895 92.3145 12.1226 92.2158 11.4668L92.1211 10.7812L92.1162 10.749V10.7178L92.1045 10.4795C92.0802 10.227 92.018 9.93092 91.9111 9.58887C91.8012 9.237 91.6839 8.91262 91.5596 8.61523L91.4326 8.32715L91.4258 8.3125L91.4199 8.29688C91.3472 8.10793 91.2873 7.97303 91.2402 7.88477C91.2242 7.85474 91.2108 7.83464 91.2021 7.82129L91.1338 7.77539L91.0742 7.65625L91.0293 7.56543L90.9766 7.45996V7.45508C90.9373 7.40083 90.8737 7.32165 90.7803 7.21484L90.7588 7.19043L90.7412 7.16309C90.7229 7.1356 90.7099 7.12614 90.707 7.12402C90.7062 7.1234 90.7061 7.12304 90.7061 7.12305C90.7011 7.12207 90.6501 7.11428 90.5283 7.16504L90.5117 7.17188L90.4941 7.17773C90.3312 7.23206 90.1491 7.24902 89.9707 7.24902C89.7377 7.24898 89.47 7.1967 89.2588 7.00488C89.0385 6.80463 88.9688 6.53496 88.9688 6.29297C88.9688 5.9475 89.0762 5.59562 89.25 5.24805L89.2539 5.24023L89.2588 5.23242C89.4407 4.89894 89.5926 4.64118 89.708 4.4873C89.8887 4.20739 90.1264 3.93931 90.4141 3.68359C90.7126 3.41488 90.9636 3.17892 91.168 2.97461C91.4202 2.72242 91.6896 2.51056 91.9717 2.4082C92.1909 2.30318 92.4232 2.2344 92.6621 2.23438C92.842 2.23438 93.0212 2.25261 93.1992 2.28711C93.3668 2.31503 93.4904 2.32615 93.5742 2.32617V2.82617L93.3691 2.81445C93.2931 2.80685 93.2093 2.79547 93.1182 2.78027C92.9662 2.74989 92.8141 2.73438 92.6621 2.73438C92.5101 2.7344 92.3426 2.78087 92.1602 2.87207L92.0176 2.93457C91.8694 3.01441 91.7038 3.14581 91.5215 3.32812L91.168 3.66992C91.0388 3.79151 90.8981 3.92084 90.7461 4.05762C90.4725 4.30082 90.2594 4.54391 90.1074 4.78711C90.0162 4.90875 89.8797 5.13717 89.6973 5.47168C89.5452 5.77577 89.4688 6.04969 89.4688 6.29297L89.4775 6.39941C89.5089 6.59914 89.6338 6.71371 89.8535 6.74219L89.9707 6.74902C90.1228 6.74902 90.2447 6.73354 90.3359 6.70312C90.7008 6.55113 90.9748 6.61208 91.1572 6.88574C91.3699 7.12883 91.4765 7.28093 91.4766 7.3418L91.5215 7.43359L91.5576 7.46387C91.6441 7.55373 91.7538 7.77151 91.8867 8.11719C92.0692 8.51251 92.2366 8.95388 92.3887 9.44043C92.5407 9.92686 92.6162 10.3529 92.6162 10.7178C92.7378 11.6603 92.8753 12.4358 93.0273 13.0439C93.1794 13.652 93.3469 14.2301 93.5293 14.7773C93.7117 15.3246 93.8783 15.9783 94.0303 16.7383C94.1823 17.4985 94.3198 18.5022 94.4414 19.749L94.4521 19.9883C94.4597 20.0871 94.4711 20.205 94.4863 20.3418C94.5471 20.5851 94.5781 20.8745 94.5781 21.209L94.5557 21.2773Z" fill="#FF0000"/>
</svg>
