<svg width="166" height="45" viewBox="0 0 166 45" fill="none" xmlns="http://www.w3.org/2000/svg">
<path d="M54.1673 31.1548V28.3039H51.3164V11.1985H54.1673V8.34766H74.1236V14.0494H57.0182V25.453H68.4218V22.6021H62.72V16.9003H74.1236V28.3039H71.2727V31.1548H54.1673Z" fill="black"/>
<path d="M25.6562 31.1548V25.453H34.2089V14.0494H25.6562V8.34766H48.4634V14.0494H39.9107V25.453H48.4634V31.1548H25.6562Z" fill="black"/>
<path d="M0 31.1548V8.34766H19.9562V11.1985H22.8071V28.3039H19.9562V31.1548H0ZM17.1054 25.453V22.6021H5.70179V25.453H17.1054ZM17.1054 16.9003V14.0494H5.70179V16.9003H17.1054Z" fill="black"/>
<path d="M142.703 31.155C142.43 31.0942 142.293 30.7749 142.293 30.1971C142.293 29.1936 142.582 28.114 143.16 26.9585C143.342 26.7456 143.494 26.5327 143.616 26.3199C143.768 26.107 143.844 25.8637 143.844 25.59C143.844 25.4076 143.935 25.1339 144.118 24.769C144.3 24.3737 144.498 23.9631 144.711 23.5374C144.954 23.0813 145.167 22.6859 145.349 22.3514C145.532 22.0169 145.623 21.8193 145.623 21.7584C145.684 21.6064 145.744 21.4391 145.805 21.2567C145.896 21.0438 145.942 20.9374 145.942 20.9374C146.246 20.4812 146.611 19.9187 147.037 19.2497C147.493 18.5806 148.025 17.8052 148.633 16.9233H148.588C149.013 16.2239 149.394 15.6309 149.728 15.1444C150.093 14.6274 150.428 14.2169 150.732 13.9128C151.705 12.9397 152.815 12.4531 154.061 12.4531C154.822 12.4531 155.202 12.7876 155.202 13.4566C155.202 14.0344 154.852 14.6274 154.153 15.2356C153.879 15.4789 153.59 15.7222 153.286 15.9654C153.012 16.1783 152.754 16.4064 152.511 16.6496C152.267 16.9233 151.933 17.3339 151.507 17.8812C151.081 18.3982 150.58 19.052 150.002 19.8426C149.941 19.9339 149.774 20.1619 149.5 20.5269C149.257 20.8614 148.998 21.2415 148.725 21.6672C148.481 22.0625 148.299 22.4122 148.177 22.7163C148.086 22.99 148.147 23.1117 148.36 23.0813C148.785 22.4731 149.835 21.576 151.507 20.39C152.206 19.9035 152.784 19.4169 153.24 18.9304C153.697 18.4438 154.153 18.0485 154.609 17.7444C154.761 17.6836 154.928 17.5923 155.111 17.4707C155.293 17.3491 155.491 17.1818 155.704 16.9689H155.749C156.57 16.5432 157.452 16.0719 158.395 15.5549C159.338 15.0075 160.326 14.3993 161.36 13.7303C161.451 13.6695 161.573 13.6695 161.725 13.7303C163.093 13.2438 164.036 13.0005 164.553 13.0005C165.07 13.0005 165.328 13.2286 165.328 13.6847C165.328 13.7759 165.283 14.004 165.191 14.3689C165.131 14.7338 164.994 15.0836 164.781 15.4181C164.598 15.7526 164.325 15.9198 163.96 15.9198H161.953C160.949 16.3151 159.87 16.7409 158.714 17.197C157.589 17.6227 156.418 18.2765 155.202 19.1584H155.156C150.686 22.1082 147.341 25.2251 145.121 28.5094C145.091 28.6614 145.03 28.8439 144.939 29.0567C144.847 29.2696 144.741 29.5281 144.619 29.8322C144.163 30.6228 143.525 31.0638 142.703 31.155Z" fill="#FF0000"/>
<path d="M123.367 31.7009C123.002 31.7009 122.698 31.5944 122.455 31.3816C122.211 31.1687 122.09 30.8342 122.09 30.378C122.09 30.2564 122.105 30.1348 122.135 30.0131C122.135 29.8915 122.151 29.7699 122.181 29.6482C122.424 28.6447 122.835 27.4587 123.413 26.0903C123.99 24.7219 124.751 23.2622 125.693 21.7113C126.666 20.1605 127.868 18.64 129.297 17.1499C130.361 16.0552 131.502 15.2797 132.718 14.8236C133.934 14.337 135.227 14.0938 136.595 14.0938H136.641C137.675 14.0938 138.359 14.3674 138.693 14.9148C139.028 15.4318 139.195 15.9639 139.195 16.5113C139.195 17.1499 139.104 17.6517 138.922 18.0166L138.876 18.0622C138.754 18.1838 138.602 18.2446 138.42 18.2446C138.268 18.2446 138.116 18.1838 137.964 18.0622C137.842 17.9406 137.781 17.7733 137.781 17.5604C137.781 17.2563 137.72 16.9979 137.599 16.785C137.507 16.5721 137.386 16.3897 137.234 16.2376C137.203 16.1768 137.127 16.1464 137.006 16.1464C136.884 16.116 136.747 16.1008 136.595 16.1008H136.55C136.458 16.1008 136.367 16.0856 136.276 16.0552C136.185 15.9943 136.093 15.9639 136.002 15.9639C134.847 15.9639 133.417 16.7698 131.714 18.3815C129.981 20.0844 128.689 21.5593 127.837 22.8061C126.986 24.0529 126.393 25.1324 126.058 26.0447C125.754 26.9266 125.526 27.7172 125.374 28.4166C125.344 28.6599 125.42 28.7815 125.602 28.7815C125.937 28.7815 126.347 28.6295 126.834 28.3254C127.351 28.0213 127.883 27.6564 128.43 27.2307C128.978 26.8049 129.51 26.3792 130.027 25.9535C130.544 25.4973 130.954 25.1324 131.258 24.8587C131.41 24.7067 131.547 24.6002 131.669 24.5394C131.821 24.4786 131.943 24.4026 132.034 24.3113C132.186 24.1897 132.292 24.0681 132.353 23.9464C132.444 23.8248 132.551 23.7184 132.672 23.6271C133.767 22.6844 134.649 21.9394 135.318 21.392C135.987 20.8143 136.504 20.3581 136.869 20.0236C137.264 19.6891 137.599 19.4002 137.872 19.1569C138.268 18.7616 138.709 18.5639 139.195 18.5639C139.895 18.5639 140.336 18.9441 140.518 19.7043C140.64 20.13 140.533 20.4341 140.199 20.6166C139.864 20.7686 139.621 20.9511 139.469 21.164C139.226 21.4681 138.967 21.9242 138.693 22.5324C138.42 23.1102 138.055 23.8096 137.599 24.6307C137.325 25.1476 137.082 25.7254 136.869 26.364C136.686 26.9722 136.626 27.4283 136.686 27.7324L137.462 27.2307C137.857 27.0482 138.283 26.8962 138.739 26.7745C139.195 26.6225 139.575 26.44 139.879 26.2272C140.092 26.1055 140.275 26.0447 140.427 26.0447C140.67 26.0447 140.792 26.1511 140.792 26.364C140.792 26.6073 140.609 26.8505 140.244 27.0938C139.362 27.7324 138.663 28.1886 138.146 28.4623C137.629 28.7055 137.082 29.1161 136.504 29.6938C136.382 29.8155 136.124 30.1044 135.729 30.5605C135.364 30.9862 135.105 31.2447 134.953 31.336C134.831 31.3968 134.695 31.4272 134.543 31.4272C134.421 31.4576 134.299 31.4728 134.178 31.4728C133.752 31.4728 133.493 31.4272 133.402 31.336C133.341 31.2751 133.25 31.2143 133.129 31.1535C133.037 31.1231 132.961 31.0319 132.9 30.8798C132.84 30.6365 132.809 30.4237 132.809 30.2412C132.809 29.6938 132.946 29.0552 133.22 28.3254C133.524 27.5652 133.919 26.7289 134.406 25.8166C134.801 25.0564 135.09 24.4634 135.272 24.0377C135.455 23.6119 135.592 23.2622 135.683 22.9885C135.774 22.6844 135.881 22.3956 136.002 22.1219C135.576 22.5172 135.136 22.9277 134.679 23.3535C134.223 23.7792 133.691 24.2505 133.083 24.7675C132.992 24.8283 132.87 24.9195 132.718 25.0412C132.566 25.1324 132.459 25.1932 132.399 25.2236L131.167 26.364C130.316 27.033 129.555 27.6564 128.886 28.2342C128.217 28.812 127.533 29.3593 126.834 29.8763C126.134 30.3933 125.298 30.9254 124.325 31.4728C123.96 31.6248 123.641 31.7009 123.367 31.7009Z" fill="#FF0000"/>
<path d="M109.659 32.3401C109.568 32.3401 109.37 32.2793 109.066 32.1576C108.762 32.0664 108.442 31.9752 108.108 31.8839C107.773 31.7927 107.53 31.7471 107.378 31.7471H107.333C106.755 31.7471 106.314 31.519 106.01 31.0629C105.736 30.5763 105.554 30.1354 105.462 29.7401C105.432 29.588 105.402 29.436 105.371 29.2839C105.371 29.1015 105.371 28.919 105.371 28.7366C105.371 27.733 105.614 26.5927 106.101 25.3155C106.587 24.0383 107.241 22.7155 108.062 21.347C108.914 19.9786 109.872 18.7014 110.936 17.5154C112.031 16.2687 113.141 15.2955 114.266 14.5961C115.391 13.8967 116.41 13.5014 117.322 13.4102C117.809 13.4102 118.31 13.547 118.827 13.8207C119.344 14.0944 119.709 14.2312 119.922 14.2312H119.968C120.606 14.2312 121.032 14.4897 121.245 15.0067C121.458 15.5236 121.564 16.0406 121.564 16.5575C121.564 16.8616 121.503 17.1809 121.382 17.5154C121.26 17.8499 121.154 18.1236 121.062 18.3365C121.002 18.5494 121.002 18.6254 121.062 18.5646L121.108 18.519C120.774 19.1271 120.393 19.7505 119.968 20.3891C119.572 20.9973 118.919 21.8032 118.006 22.8067C117.641 23.202 117.14 23.5973 116.501 23.9927C115.893 24.3576 115.3 24.6921 114.722 24.9962C114.144 25.3003 113.734 25.5131 113.49 25.6348C113.247 25.7564 112.928 25.8172 112.533 25.8172C112.137 25.8172 111.696 25.7716 111.21 25.6804C110.754 25.5892 110.358 25.5436 110.024 25.5436C109.841 25.5436 109.674 25.5588 109.522 25.5892C109.37 25.6196 109.264 25.7108 109.203 25.8629C108.716 26.6535 108.473 27.4442 108.473 28.2348C108.473 28.7214 108.579 29.1319 108.792 29.4664C109.035 29.7705 109.431 29.9225 109.978 29.9225C110.161 29.9225 110.358 29.9073 110.571 29.8769C110.784 29.8465 110.997 29.7857 111.21 29.6945C111.727 29.6032 112.092 29.5576 112.304 29.5576C112.517 29.5576 112.745 29.5272 112.989 29.4664C113.262 29.4056 113.703 29.2535 114.311 29.0102C114.981 28.7366 115.482 28.5389 115.817 28.4173C116.182 28.2956 116.455 28.1892 116.638 28.098C116.851 28.0067 117.064 27.9003 117.276 27.7787C117.489 27.657 117.824 27.4746 118.28 27.2313C118.614 27.0488 118.797 26.9576 118.827 26.9576C118.888 26.9576 118.979 26.9272 119.101 26.8664C119.223 26.7751 119.542 26.5623 120.059 26.2278C120.606 25.8629 121.032 25.6804 121.336 25.6804C121.549 25.6804 121.655 25.7564 121.655 25.9085C121.655 26.0301 121.549 26.2126 121.336 26.4558C121.154 26.6991 120.819 26.988 120.333 27.3225C119.816 27.6874 119.223 28.1132 118.554 28.5997C117.915 29.0863 117.322 29.4664 116.775 29.7401C116.592 29.7705 116.425 29.8465 116.273 29.9681C116.151 30.0594 115.969 30.1354 115.726 30.1962L113.171 31.291L113.217 31.2453C113.308 31.1541 113.202 31.1541 112.897 31.2453C112.624 31.3366 112.259 31.4734 111.803 31.6559C111.377 31.8383 110.951 31.9904 110.526 32.112C110.13 32.2641 109.841 32.3401 109.659 32.3401ZM111.438 24.4944C111.559 24.4944 111.681 24.4944 111.803 24.4944C111.924 24.464 112.046 24.4336 112.168 24.4032C112.38 24.2207 112.578 24.0839 112.761 23.9927C112.943 23.9014 113.186 23.7494 113.49 23.5365C113.795 23.3237 114.22 22.9435 114.768 22.3962C115.224 21.94 115.619 21.6207 115.954 21.4383C116.288 21.2254 116.562 20.9973 116.775 20.7541C117.413 19.8722 117.748 19.2032 117.778 18.747C117.839 18.2909 117.869 17.8652 117.869 17.4698C117.504 16.9833 117.17 16.74 116.866 16.74C116.683 16.74 116.41 16.816 116.045 16.9681C115.528 17.1809 115.102 17.3786 114.768 17.5611C114.464 17.7435 114.007 18.1388 113.399 18.747C112.7 19.4769 112.061 20.1915 111.483 20.8909C110.906 21.5599 110.449 22.2441 110.115 22.9435C110.085 23.0652 110.039 23.1868 109.978 23.3085C109.948 23.3997 109.933 23.4757 109.933 23.5365C109.933 23.871 110.085 24.1143 110.389 24.2664C110.693 24.4184 111.042 24.4944 111.438 24.4944Z" fill="#FF0000"/>
<path d="M84.5428 44.1546C84.3908 44.1546 84.1779 44.109 83.9042 44.0178C83.6001 43.957 83.4177 43.8353 83.3569 43.6529V43.7441C83.3569 43.7441 83.3416 43.6073 83.3112 43.3336C83.2808 43.0903 83.2656 42.8774 83.2656 42.695C83.2656 42.3301 83.3264 41.9043 83.4481 41.4178C83.5697 40.9312 83.7978 40.3991 84.1323 39.8213C84.5276 37.7838 84.9534 36.2177 85.4095 35.123C85.896 34.0587 86.337 33.1616 86.7323 32.4318C87.2493 31.5499 87.7814 30.6832 88.3288 29.8317C88.9066 28.9499 89.4844 28.0984 90.0622 27.2773C90.4879 26.6996 90.8984 26.0914 91.2937 25.4528C91.7195 24.7838 91.9932 24.3428 92.1148 24.13C92.3277 23.7955 92.5861 23.4153 92.8902 22.9896C93.1943 22.5335 93.4832 22.1229 93.7569 21.758C94.061 21.3627 94.2739 21.1194 94.3955 21.0282C94.3955 21.0282 94.4259 20.9826 94.4867 20.8913C94.5476 20.8001 94.578 20.7393 94.578 20.7089C94.578 20.3744 94.5476 20.0855 94.4867 19.8422C94.4563 19.5685 94.4411 19.3709 94.4411 19.2492C94.3195 18.0024 94.1826 16.9989 94.0306 16.2387C93.8786 15.4784 93.7113 14.8246 93.5288 14.2773C93.3464 13.7299 93.1791 13.1521 93.0271 12.5439C92.875 11.9357 92.7382 11.1603 92.6166 10.2176C92.6166 9.85268 92.5405 9.42695 92.3885 8.9404C92.2364 8.45385 92.0692 8.01291 91.8867 7.61759C91.7347 7.22226 91.613 6.99419 91.5218 6.93337L91.4762 6.84214C91.4762 6.78132 91.3698 6.62928 91.1569 6.386C90.9744 6.11231 90.7008 6.05149 90.3358 6.20354C90.2446 6.23395 90.123 6.24916 89.9709 6.24916C89.6364 6.24916 89.4692 6.09711 89.4692 5.79301C89.4692 5.54974 89.5452 5.27605 89.6972 4.97196C89.8797 4.63745 90.0165 4.40938 90.1078 4.28774C90.2598 4.04447 90.4727 3.80119 90.7464 3.55791C91.0505 3.28423 91.3089 3.04095 91.5218 2.82808C91.7651 2.58481 91.978 2.43276 92.1604 2.37194C92.3429 2.28071 92.5101 2.2351 92.6622 2.2351C92.8142 2.2351 92.9663 2.2503 93.1183 2.28071C93.3008 2.31112 93.4528 2.32633 93.5745 2.32633H93.6201C94.1674 2.32633 94.5324 2.58481 94.7148 3.10177C94.9277 3.61873 95.1101 4.37897 95.2622 5.38249C95.3838 6.0819 95.5207 6.76612 95.6727 7.43513C95.8552 8.07373 95.9464 8.87958 95.9464 9.85269C95.9464 10.3088 96.0224 10.9018 96.1745 11.6316C96.3265 12.3311 96.4482 13.1673 96.5394 14.1404C96.5394 14.3533 96.585 14.7942 96.6762 15.4632C96.7675 16.1323 96.8739 16.634 96.9955 16.9685V18.2001C97.2388 18.1089 97.4213 18.0633 97.5429 18.0633C98.1815 17.3638 98.8049 16.71 99.4131 16.1018C100.052 15.4632 100.356 15.1287 100.325 15.0983L100.371 15.0071C100.888 14.4293 101.603 13.6995 102.515 12.8176C103.427 11.9053 104.431 10.993 105.525 10.0808C106.651 9.13806 107.745 8.34741 108.81 7.70882H108.855C108.886 7.70882 109.068 7.55677 109.403 7.25267C109.737 6.91817 110.072 6.58366 110.406 6.24916C110.771 5.88424 110.984 5.68658 111.045 5.65617L111.136 5.61056C111.197 5.61056 111.349 5.48892 111.592 5.24564C111.835 4.97196 112.109 4.68307 112.413 4.37897C112.748 4.04447 113.006 3.81639 113.189 3.69476V3.64914C113.584 3.40587 113.842 3.26902 113.964 3.23861C114.086 3.17779 114.238 3.07136 114.42 2.91931C114.633 2.76727 114.998 2.43276 115.515 1.9158L115.561 1.87019C115.621 1.90059 115.728 1.83978 115.88 1.68773C116.062 1.50527 116.138 1.39884 116.108 1.36843L116.154 1.2772C116.306 1.18597 116.412 1.15556 116.473 1.18597C116.564 1.18597 116.625 1.17077 116.655 1.14036C116.99 0.714623 117.339 0.425732 117.704 0.273685C118.1 0.0912279 118.48 0 118.845 0C119.24 0 119.605 0.0760237 119.94 0.228071C120.274 0.380119 120.548 0.532166 120.761 0.684214C120.821 0.714623 120.852 0.821056 120.852 1.00351C120.882 1.15556 120.745 1.39884 120.441 1.73334C120.168 2.03744 119.605 2.47837 118.754 3.05616C118.419 3.26902 118.115 3.5123 117.841 3.78598C117.598 4.02926 117.218 4.33336 116.701 4.69827C116.214 5.06318 115.439 5.56494 114.375 6.20354H114.329C114.086 6.32518 113.797 6.61407 113.462 7.07021C113.158 7.52636 112.839 7.87607 112.504 8.11934C112.17 8.3018 111.729 8.56028 111.182 8.89478C110.665 9.19888 110.239 9.45736 109.904 9.67023L107.578 11.358C106.666 12.027 105.723 12.8024 104.75 13.6843C103.777 14.5358 102.849 15.4024 101.967 16.2843C101.086 17.1662 100.295 17.972 99.5955 18.7019C98.9265 19.4013 98.4248 19.9182 98.0903 20.2527C97.9686 20.3744 97.847 20.4808 97.7254 20.572C97.6341 20.6329 97.4973 20.7393 97.3148 20.8913C97.3148 21.013 97.33 21.1346 97.3604 21.2563C97.3909 21.3779 97.4061 21.4387 97.4061 21.4387V21.3931C97.5885 21.6972 97.7102 21.9405 97.771 22.1229C97.8318 22.3054 97.8622 22.4726 97.8622 22.6247C97.8622 22.8376 97.8166 23.1264 97.7254 23.4914V23.4457C97.6949 23.6282 97.5581 23.7194 97.3148 23.7194C97.102 23.7194 96.8283 23.6434 96.4938 23.4914C96.1593 23.3089 95.8856 23.1721 95.6727 23.0808L95.6271 23.0352H95.5815C95.2166 23.5218 94.8365 24.0387 94.4411 24.5861C94.0458 25.1031 93.6809 25.5288 93.3464 25.8633L93.3008 25.9089C93.3008 25.8785 93.1487 26.0762 92.8446 26.5019C92.5405 26.9276 92.1908 27.4446 91.7955 28.0528C91.4002 28.6306 91.0353 29.1779 90.7008 29.6949H90.6551C90.5335 29.8469 90.2142 30.2575 89.6972 30.9265C89.1803 31.5955 88.4809 32.8271 87.599 34.6212C86.93 36.0201 86.5499 37.1604 86.4586 38.0423C86.3674 38.9242 86.2914 39.4412 86.2306 39.5932C86.3218 39.502 86.5499 39.3195 86.9148 39.0458C87.3101 38.8025 87.751 38.5289 88.2376 38.2248C88.7241 37.9207 89.1803 37.6774 89.606 37.4949C90.0317 37.3125 90.3358 37.2517 90.5183 37.3125C90.792 37.4341 90.9288 37.6014 90.9288 37.8142C90.9288 38.0271 90.7616 38.2248 90.4271 38.4072C90.123 38.6201 89.8797 38.7569 89.6972 38.8178C89.6972 38.8178 89.5452 38.9242 89.2411 39.1371C88.937 39.3803 88.6329 39.6084 88.3288 39.8213C88.0551 40.0645 87.9183 40.1862 87.9183 40.1862C87.9183 40.1862 87.8423 40.323 87.6902 40.5967C87.5382 40.8704 87.3557 41.0681 87.1428 41.1897C87.0212 41.3113 86.8235 41.5546 86.5499 41.9195C86.3066 42.3149 86.0177 42.7254 85.6832 43.1511C85.3487 43.5768 84.9838 43.9114 84.5884 44.1546H84.5428Z" fill="#FF0000"/>
</svg>
